STARTFONT 2.1
COMMENT
COMMENT Converted from OpenType font "Xuong.otf" by "otf2bdf 3.0".
COMMENT
FONT -FreeType-Xuong-Bold-R-Normal--19-140-100-100-P-96-ISO10646-1
SIZE 14 100 100
FONTBOUNDINGBOX 21 24 -2 -3
STARTPROPERTIES 19
FOUNDRY "FreeType"
FAMILY_NAME "Xuong"
WEIGHT_NAME "Bold"
SLANT "R"
SETWIDTH_NAME "Normal"
ADD_STYLE_NAME ""
PIXEL_SIZE 19
POINT_SIZE 140
RESOLUTION_X 100
RESOLUTION_Y 100
SPACING "P"
AVERAGE_WIDTH 96
CHARSET_REGISTRY "ISO10646"
CHARSET_ENCODING "1"
FONT_ASCENT 17
FONT_DESCENT 3
COPYRIGHT "-FreeType-Xuong-Bold-R-Normal--19-140-100-100-P-96-ISO10646-1"
_OTF_FONTFILE "Xuong.otf"
_OTF_PSNAME "Xuong"
ENDPROPERTIES
CHARS 445
STARTCHAR 0000
ENCODING 0
SWIDTH 0 0
DWIDTH 0 0
BBX 0 0 0 0
BITMAP
ENDCHAR
STARTCHAR 000D
ENCODING 13
SWIDTH 205 0
DWIDTH 4 0
BBX 0 0 0 0
BITMAP
ENDCHAR
STARTCHAR 0020
ENCODING 32
SWIDTH 205 0
DWIDTH 4 0
BBX 0 0 0 0
BITMAP
ENDCHAR
STARTCHAR 0021
ENCODING 33
SWIDTH 154 0
DWIDTH 3 0
BBX 3 14 0 0
BITMAP
60
E0
E0
60
60
60
60
60
60
40
40
00
60
60
ENDCHAR
STARTCHAR 0022
ENCODING 34
SWIDTH 257 0
DWIDTH 5 0
BBX 5 5 0 9
BITMAP
D8
D8
D8
D8
D8
ENDCHAR
STARTCHAR 0023
ENCODING 35
SWIDTH 720 0
DWIDTH 14 0
BBX 14 14 0 0
BITMAP
0330
0330
0660
0660
7FFC
7FFC
0CC0
0CC0
FFF8
FFF8
1980
1980
1980
3180
ENDCHAR
STARTCHAR 0024
ENCODING 36
SWIDTH 514 0
DWIDTH 10 0
BBX 9 17 1 -2
BITMAP
1800
FE00
FF00
FF80
E380
F000
7800
3C00
1E00
0F00
0780
C780
FF80
FF80
7F80
1800
1800
ENDCHAR
STARTCHAR 0025
ENCODING 37
SWIDTH 565 0
DWIDTH 11 0
BBX 10 14 1 0
BITMAP
F180
F180
9300
F300
F600
0600
0C00
0C00
1800
1BC0
3BC0
32C0
73C0
63C0
ENDCHAR
STARTCHAR 0026
ENCODING 38
SWIDTH 668 0
DWIDTH 13 0
BBX 12 14 1 0
BITMAP
3F00
3F80
7F80
7180
7380
7F80
FF00
E330
E3F0
E1F0
E3E0
FFE0
FF70
7E70
ENDCHAR
STARTCHAR 0027
ENCODING 39
SWIDTH 102 0
DWIDTH 2 0
BBX 2 5 0 9
BITMAP
C0
C0
C0
C0
C0
ENDCHAR
STARTCHAR 0028
ENCODING 40
SWIDTH 205 0
DWIDTH 4 0
BBX 4 15 0 -1
BITMAP
30
60
60
C0
C0
C0
C0
C0
C0
C0
C0
60
60
30
30
ENDCHAR
STARTCHAR 0029
ENCODING 41
SWIDTH 205 0
DWIDTH 4 0
BBX 4 15 0 -1
BITMAP
C0
60
60
30
30
30
30
30
30
30
30
30
60
E0
C0
ENDCHAR
STARTCHAR 002A
ENCODING 42
SWIDTH 360 0
DWIDTH 7 0
BBX 6 7 1 7
BITMAP
30
B4
FC
F8
FC
FC
30
ENDCHAR
STARTCHAR 002B
ENCODING 43
SWIDTH 411 0
DWIDTH 8 0
BBX 8 8 0 3
BITMAP
18
18
18
FF
FF
18
18
18
ENDCHAR
STARTCHAR 002C
ENCODING 44
SWIDTH 154 0
DWIDTH 3 0
BBX 3 5 0 -2
BITMAP
60
60
60
C0
C0
ENDCHAR
STARTCHAR 002D
ENCODING 45
SWIDTH 411 0
DWIDTH 8 0
BBX 8 2 0 7
BITMAP
FF
FF
ENDCHAR
STARTCHAR 002E
ENCODING 46
SWIDTH 154 0
DWIDTH 3 0
BBX 3 2 0 0
BITMAP
E0
E0
ENDCHAR
STARTCHAR 002F
ENCODING 47
SWIDTH 257 0
DWIDTH 5 0
BBX 6 16 0 -1
BITMAP
0C
18
18
18
18
30
30
30
60
60
60
60
C0
C0
C0
C0
ENDCHAR
STARTCHAR 0030
ENCODING 48
SWIDTH 565 0
DWIDTH 11 0
BBX 10 14 1 0
BITMAP
7F00
7F80
FF80
E3C0
E3C0
E3C0
E3C0
E3C0
E3C0
E3C0
E3C0
FFC0
FF80
7F00
ENDCHAR
STARTCHAR 0031
ENCODING 49
SWIDTH 360 0
DWIDTH 7 0
BBX 6 14 1 0
BITMAP
1C
3C
FC
FC
FC
DC
1C
1C
1C
1C
1C
1C
1C
1C
ENDCHAR
STARTCHAR 0032
ENCODING 50
SWIDTH 514 0
DWIDTH 10 0
BBX 9 14 1 0
BITMAP
7F00
7F80
FF80
E380
E380
0780
0F00
1E00
3C00
7800
F000
FF80
FF80
FF80
ENDCHAR
STARTCHAR 0033
ENCODING 51
SWIDTH 514 0
DWIDTH 10 0
BBX 8 14 1 0
BITMAP
FF
FF
7F
07
07
07
7F
7F
7F
07
07
7F
FF
FF
ENDCHAR
STARTCHAR 0034
ENCODING 52
SWIDTH 565 0
DWIDTH 11 0
BBX 9 14 1 0
BITMAP
0F00
1F00
1F00
3F00
3F00
7700
F700
E700
FF80
FF80
FF80
0700
0700
0700
ENDCHAR
STARTCHAR 0035
ENCODING 53
SWIDTH 514 0
DWIDTH 10 0
BBX 8 14 1 0
BITMAP
FF
FF
FE
E0
E0
E0
FF
FF
FF
07
07
7F
FF
FF
ENDCHAR
STARTCHAR 0036
ENCODING 54
SWIDTH 514 0
DWIDTH 10 0
BBX 9 14 1 0
BITMAP
FE00
FF00
FF80
E380
E380
E000
FF00
FF80
FF80
E380
E380
FF80
FF80
FF80
ENDCHAR
STARTCHAR 0037
ENCODING 55
SWIDTH 462 0
DWIDTH 9 0
BBX 9 14 0 0
BITMAP
FF00
FF80
7F80
0780
0700
0F00
0F00
0E00
1E00
1E00
1C00
1C00
3C00
3800
ENDCHAR
STARTCHAR 0038
ENCODING 56
SWIDTH 565 0
DWIDTH 11 0
BBX 10 14 1 0
BITMAP
7F00
7F80
FF80
F3C0
E1C0
E1C0
FF80
FF80
E3C0
E1C0
E3C0
FFC0
FF80
7F00
ENDCHAR
STARTCHAR 0039
ENCODING 57
SWIDTH 514 0
DWIDTH 10 0
BBX 9 14 1 0
BITMAP
FF00
FF80
FF80
E780
E380
FF80
FF80
FF80
0380
0380
E380
FF80
FF80
7F80
ENDCHAR
STARTCHAR 003A
ENCODING 58
SWIDTH 154 0
DWIDTH 3 0
BBX 3 10 0 0
BITMAP
E0
E0
E0
00
00
00
00
00
E0
E0
ENDCHAR
STARTCHAR 003B
ENCODING 59
SWIDTH 154 0
DWIDTH 3 0
BBX 4 12 -1 -2
BITMAP
70
70
70
00
00
00
00
20
30
30
60
E0
ENDCHAR
STARTCHAR 003C
ENCODING 60
SWIDTH 360 0
DWIDTH 7 0
BBX 7 10 0 2
BITMAP
02
06
1E
7C
F0
C0
F0
7C
1E
06
ENDCHAR
STARTCHAR 003D
ENCODING 61
SWIDTH 411 0
DWIDTH 8 0
BBX 8 5 0 4
BITMAP
FF
FF
00
FF
FF
ENDCHAR
STARTCHAR 003E
ENCODING 62
SWIDTH 360 0
DWIDTH 7 0
BBX 7 11 0 2
BITMAP
80
E0
F8
3E
0E
06
0E
3C
F8
E0
80
ENDCHAR
STARTCHAR 003F
ENCODING 63
SWIDTH 514 0
DWIDTH 10 0
BBX 9 14 1 0
BITMAP
7F00
7F80
FF80
E780
C780
0700
0E00
1E00
1C00
1C00
0000
0000
1C00
1C00
ENDCHAR
STARTCHAR 0040
ENCODING 64
SWIDTH 771 0
DWIDTH 15 0
BBX 14 16 1 -2
BITMAP
FFF8
FFFC
FFFC
C70C
C78C
CF8C
CD8C
CCCC
CCCC
CCCC
DFCC
D8FC
D8FC
C000
FF00
FF80
ENDCHAR
STARTCHAR 0041
ENCODING 65
SWIDTH 565 0
DWIDTH 11 0
BBX 11 14 0 0
BITMAP
1F00
1F80
3F80
3980
3980
3980
31C0
71C0
71C0
7FC0
7FE0
70E0
E0E0
E0E0
ENDCHAR
STARTCHAR 0042
ENCODING 66
SWIDTH 565 0
DWIDTH 11 0
BBX 10 14 1 0
BITMAP
FF00
FF80
FF80
E3C0
E3C0
E3C0
FF80
FF80
FFC0
E3C0
E3C0
FFC0
FF80
FF00
ENDCHAR
STARTCHAR 0043
ENCODING 67
SWIDTH 514 0
DWIDTH 10 0
BBX 9 14 1 0
BITMAP
FE00
FF00
FF80
E380
E000
E000
E000
E000
E000
E000
E380
FF80
FF00
FF00
ENDCHAR
STARTCHAR 0044
ENCODING 68
SWIDTH 565 0
DWIDTH 11 0
BBX 10 14 1 0
BITMAP
FF00
FF80
FF80
E3C0
E3C0
E3C0
E3C0
E3C0
E3C0
E3C0
E3C0
FFC0
FF80
FF00
ENDCHAR
STARTCHAR 0045
ENCODING 69
SWIDTH 514 0
DWIDTH 10 0
BBX 9 14 1 0
BITMAP
FE00
FF00
FF80
E380
E000
E000
FC00
FC00
E000
E000
E380
FF80
FF00
FF00
ENDCHAR
STARTCHAR 0046
ENCODING 70
SWIDTH 462 0
DWIDTH 9 0
BBX 8 14 1 0
BITMAP
FE
FF
FF
E3
E0
E0
E0
FE
FE
E0
E0
E0
E0
E0
ENDCHAR
STARTCHAR 0047
ENCODING 71
SWIDTH 514 0
DWIDTH 10 0
BBX 9 14 1 0
BITMAP
FF00
FF00
FF80
E380
E000
E000
EF80
EF80
EF80
E380
E380
FF80
FF80
FF80
ENDCHAR
STARTCHAR 0048
ENCODING 72
SWIDTH 565 0
DWIDTH 11 0
BBX 10 14 1 0
BITMAP
E3C0
E3C0
E3C0
E3C0
E3C0
FFC0
FFC0
FFC0
E3C0
E3C0
E3C0
E3C0
E3C0
E3C0
ENDCHAR
STARTCHAR 0049
ENCODING 73
SWIDTH 205 0
DWIDTH 4 0
BBX 3 14 1 0
BITMAP
E0
E0
E0
E0
E0
E0
E0
E0
E0
E0
E0
E0
E0
E0
ENDCHAR
STARTCHAR 004A
ENCODING 74
SWIDTH 462 0
DWIDTH 9 0
BBX 8 14 1 0
BITMAP
7F
7F
7F
07
07
07
07
07
07
07
E7
FF
FF
7F
ENDCHAR
STARTCHAR 004B
ENCODING 75
SWIDTH 565 0
DWIDTH 11 0
BBX 9 14 1 0
BITMAP
E380
E380
E780
EF00
EF00
FE00
FC00
FC00
FC00
FE00
EF00
E780
E780
E380
ENDCHAR
STARTCHAR 004C
ENCODING 76
SWIDTH 411 0
DWIDTH 8 0
BBX 7 14 1 0
BITMAP
E0
E0
E0
E0
E0
E0
E0
E0
E0
E0
E0
FE
FE
FC
ENDCHAR
STARTCHAR 004D
ENCODING 77
SWIDTH 668 0
DWIDTH 13 0
BBX 12 14 1 0
BITMAP
79C0
79E0
F9F0
FBF0
FBF0
FB70
EF70
EF70
EF70
EF70
EE70
E070
E070
E070
ENDCHAR
STARTCHAR 004E
ENCODING 78
SWIDTH 565 0
DWIDTH 11 0
BBX 9 14 1 0
BITMAP
6380
6380
F380
F380
FB80
FB80
FF80
FF80
EF80
EF80
E780
E780
E380
E300
ENDCHAR
STARTCHAR 004F
ENCODING 79
SWIDTH 617 0
DWIDTH 12 0
BBX 10 14 1 0
BITMAP
7F80
7FC0
FFC0
E1C0
E1C0
E1C0
E1C0
E1C0
E1C0
E1C0
E1C0
FFC0
FFC0
7F80
ENDCHAR
STARTCHAR 0050
ENCODING 80
SWIDTH 514 0
DWIDTH 10 0
BBX 9 14 1 0
BITMAP
FE00
FF00
FF80
E780
E380
E380
E780
FF80
FF00
FE00
E000
E000
E000
E000
ENDCHAR
STARTCHAR 0051
ENCODING 81
SWIDTH 617 0
DWIDTH 12 0
BBX 12 14 1 0
BITMAP
7F80
7FC0
FFC0
E1C0
E1C0
E1C0
E1C0
E1C0
E1C0
E1C0
E1C0
FFF0
FFF0
7FE0
ENDCHAR
STARTCHAR 0052
ENCODING 82
SWIDTH 514 0
DWIDTH 10 0
BBX 9 14 1 0
BITMAP
FE00
FF00
FF80
E780
E380
E780
FF00
FF00
FE00
E700
E700
E780
E380
E380
ENDCHAR
STARTCHAR 0053
ENCODING 83
SWIDTH 514 0
DWIDTH 10 0
BBX 9 14 1 0
BITMAP
FE00
FF00
FF80
E380
F000
7800
3C00
1E00
0F00
0780
C780
FF80
FF80
7F80
ENDCHAR
STARTCHAR 0054
ENCODING 84
SWIDTH 514 0
DWIDTH 10 0
BBX 10 14 0 0
BITMAP
7F80
7FC0
FFC0
EEC0
0E00
0E00
0E00
0E00
0E00
0E00
0E00
0E00
0E00
0E00
ENDCHAR
STARTCHAR 0055
ENCODING 85
SWIDTH 565 0
DWIDTH 11 0
BBX 10 14 1 0
BITMAP
E1C0
E1C0
E1C0
E1C0
E1C0
E1C0
E1C0
E1C0
E1C0
E1C0
E1C0
FFC0
FFC0
7F80
ENDCHAR
STARTCHAR 0056
ENCODING 86
SWIDTH 565 0
DWIDTH 11 0
BBX 11 14 0 0
BITMAP
E0E0
E0E0
60E0
70C0
71C0
71C0
71C0
31C0
3180
3980
3980
3F80
1F80
1F00
ENDCHAR
STARTCHAR 0057
ENCODING 87
SWIDTH 874 0
DWIDTH 17 0
BBX 15 14 1 0
BITMAP
E00E
E00E
E00E
E00E
F38E
739E
73DC
77DC
76DC
7EFC
3EFC
3E78
3C78
3C78
ENDCHAR
STARTCHAR 0058
ENCODING 88
SWIDTH 565 0
DWIDTH 11 0
BBX 10 14 1 0
BITMAP
E1C0
E1C0
F3C0
7380
7780
3F00
3F00
3F00
7F00
7F80
7380
F3C0
E1C0
E1C0
ENDCHAR
STARTCHAR 0059
ENCODING 89
SWIDTH 462 0
DWIDTH 9 0
BBX 9 14 0 0
BITMAP
E380
E380
F380
7700
7700
3E00
3E00
1E00
1C00
1C00
1C00
1C00
1C00
1C00
ENDCHAR
STARTCHAR 005A
ENCODING 90
SWIDTH 565 0
DWIDTH 11 0
BBX 9 14 1 0
BITMAP
FF00
FF00
FF80
0780
0F00
0E00
1E00
3C00
3C00
7800
7000
FF80
FF80
7F80
ENDCHAR
STARTCHAR 005B
ENCODING 91
SWIDTH 205 0
DWIDTH 4 0
BBX 4 15 0 -1
BITMAP
F0
F0
C0
C0
C0
C0
C0
C0
C0
C0
C0
C0
C0
F0
F0
ENDCHAR
STARTCHAR 005C
ENCODING 92
SWIDTH 257 0
DWIDTH 5 0
BBX 5 16 0 -1
BITMAP
80
C0
C0
C0
60
60
60
60
30
30
30
30
18
18
18
18
ENDCHAR
STARTCHAR 005D
ENCODING 93
SWIDTH 205 0
DWIDTH 4 0
BBX 4 15 0 -1
BITMAP
F0
70
30
30
30
30
30
30
30
30
30
30
30
70
F0
ENDCHAR
STARTCHAR 005E
ENCODING 94
SWIDTH 565 0
DWIDTH 11 0
BBX 10 7 1 7
BITMAP
1C00
3E00
3600
7300
6380
E180
C1C0
ENDCHAR
STARTCHAR 005F
ENCODING 95
SWIDTH 411 0
DWIDTH 8 0
BBX 8 2 0 0
BITMAP
FF
FF
ENDCHAR
STARTCHAR 0060
ENCODING 96
SWIDTH 360 0
DWIDTH 7 0
BBX 7 2 0 14
BITMAP
FC
06
ENDCHAR
STARTCHAR 0061
ENCODING 97
SWIDTH 565 0
DWIDTH 11 0
BBX 11 14 0 0
BITMAP
1F00
1F80
3F80
3980
3980
3980
31C0
71C0
71C0
7FC0
7FE0
70E0
E0E0
E0E0
ENDCHAR
STARTCHAR 0062
ENCODING 98
SWIDTH 565 0
DWIDTH 11 0
BBX 10 14 1 0
BITMAP
FF00
FF80
FF80
E3C0
E3C0
E3C0
FF80
FF80
FFC0
E3C0
E3C0
FFC0
FF80
FF00
ENDCHAR
STARTCHAR 0063
ENCODING 99
SWIDTH 514 0
DWIDTH 10 0
BBX 9 14 1 0
BITMAP
FE00
FF00
FF80
E380
E000
E000
E000
E000
E000
E000
E380
FF80
FF00
FF00
ENDCHAR
STARTCHAR 0064
ENCODING 100
SWIDTH 565 0
DWIDTH 11 0
BBX 10 14 1 0
BITMAP
FF00
FF80
FF80
E3C0
E3C0
E3C0
E3C0
E3C0
E3C0
E3C0
E3C0
FFC0
FF80
FF00
ENDCHAR
STARTCHAR 0065
ENCODING 101
SWIDTH 514 0
DWIDTH 10 0
BBX 9 14 1 0
BITMAP
FE00
FF00
FF80
E380
E000
E000
FC00
FC00
E000
E000
E380
FF80
FF00
FF00
ENDCHAR
STARTCHAR 0066
ENCODING 102
SWIDTH 462 0
DWIDTH 9 0
BBX 8 14 1 0
BITMAP
FE
FF
FF
E3
E0
E0
E0
FE
FE
E0
E0
E0
E0
E0
ENDCHAR
STARTCHAR 0067
ENCODING 103
SWIDTH 514 0
DWIDTH 10 0
BBX 9 14 1 0
BITMAP
FF00
FF00
FF80
E380
E000
E000
EF80
EF80
EF80
E380
E380
FF80
FF80
FF80
ENDCHAR
STARTCHAR 0068
ENCODING 104
SWIDTH 565 0
DWIDTH 11 0
BBX 10 14 1 0
BITMAP
E3C0
E3C0
E3C0
E3C0
E3C0
FFC0
FFC0
FFC0
E3C0
E3C0
E3C0
E3C0
E3C0
E3C0
ENDCHAR
STARTCHAR 0069
ENCODING 105
SWIDTH 205 0
DWIDTH 4 0
BBX 3 14 1 0
BITMAP
E0
E0
E0
E0
E0
E0
E0
E0
E0
E0
E0
E0
E0
E0
ENDCHAR
STARTCHAR 006A
ENCODING 106
SWIDTH 462 0
DWIDTH 9 0
BBX 8 14 1 0
BITMAP
7F
7F
7F
07
07
07
07
07
07
07
E7
FF
FF
7F
ENDCHAR
STARTCHAR 006B
ENCODING 107
SWIDTH 565 0
DWIDTH 11 0
BBX 9 14 1 0
BITMAP
E380
E380
E780
EF00
EF00
FE00
FC00
FC00
FC00
FE00
EF00
E780
E780
E380
ENDCHAR
STARTCHAR 006C
ENCODING 108
SWIDTH 411 0
DWIDTH 8 0
BBX 7 14 1 0
BITMAP
E0
E0
E0
E0
E0
E0
E0
E0
E0
E0
E0
FE
FE
FC
ENDCHAR
STARTCHAR 006D
ENCODING 109
SWIDTH 668 0
DWIDTH 13 0
BBX 12 14 1 0
BITMAP
79C0
79E0
F9F0
FBF0
FBF0
FB70
EF70
EF70
EF70
EF70
EE70
E070
E070
E070
ENDCHAR
STARTCHAR 006E
ENCODING 110
SWIDTH 565 0
DWIDTH 11 0
BBX 9 14 1 0
BITMAP
6380
6380
F380
F380
FB80
FB80
FF80
FF80
EF80
EF80
E780
E780
E380
E300
ENDCHAR
STARTCHAR 006F
ENCODING 111
SWIDTH 617 0
DWIDTH 12 0
BBX 10 14 1 0
BITMAP
7F80
7FC0
FFC0
E1C0
E1C0
E1C0
E1C0
E1C0
E1C0
E1C0
E1C0
FFC0
FFC0
7F80
ENDCHAR
STARTCHAR 0070
ENCODING 112
SWIDTH 514 0
DWIDTH 10 0
BBX 9 14 1 0
BITMAP
FE00
FF00
FF80
E780
E380
E380
E780
FF80
FF00
FE00
E000
E000
E000
E000
ENDCHAR
STARTCHAR 0071
ENCODING 113
SWIDTH 617 0
DWIDTH 12 0
BBX 12 14 1 0
BITMAP
7F80
7FC0
FFC0
E1C0
E1C0
E1C0
E1C0
E1C0
E1C0
E1C0
E1C0
FFF0
FFF0
7FE0
ENDCHAR
STARTCHAR 0072
ENCODING 114
SWIDTH 514 0
DWIDTH 10 0
BBX 9 14 1 0
BITMAP
FE00
FF00
FF80
E780
E380
E780
FF00
FF00
FE00
E700
E700
E780
E380
E380
ENDCHAR
STARTCHAR 0073
ENCODING 115
SWIDTH 514 0
DWIDTH 10 0
BBX 9 14 1 0
BITMAP
FE00
FF00
FF80
E380
F000
7800
3C00
1E00
0F00
0780
C780
FF80
FF80
7F80
ENDCHAR
STARTCHAR 0074
ENCODING 116
SWIDTH 514 0
DWIDTH 10 0
BBX 10 14 0 0
BITMAP
7F80
7FC0
FFC0
EEC0
0E00
0E00
0E00
0E00
0E00
0E00
0E00
0E00
0E00
0E00
ENDCHAR
STARTCHAR 0075
ENCODING 117
SWIDTH 565 0
DWIDTH 11 0
BBX 10 14 1 0
BITMAP
E1C0
E1C0
E1C0
E1C0
E1C0
E1C0
E1C0
E1C0
E1C0
E1C0
E1C0
FFC0
FFC0
7F80
ENDCHAR
STARTCHAR 0076
ENCODING 118
SWIDTH 565 0
DWIDTH 11 0
BBX 11 14 0 0
BITMAP
E0E0
E0E0
60E0
70C0
71C0
71C0
71C0
31C0
3180
3980
3980
3F80
1F80
1F00
ENDCHAR
STARTCHAR 0077
ENCODING 119
SWIDTH 874 0
DWIDTH 17 0
BBX 15 14 1 0
BITMAP
E00E
E00E
E00E
E00E
F38E
739E
73DC
77DC
76DC
7EFC
3EFC
3E78
3C78
3C78
ENDCHAR
STARTCHAR 0078
ENCODING 120
SWIDTH 565 0
DWIDTH 11 0
BBX 10 14 1 0
BITMAP
E1C0
E1C0
F3C0
7380
7780
3F00
3F00
3F00
7F00
7F80
7380
F3C0
E1C0
E1C0
ENDCHAR
STARTCHAR 0079
ENCODING 121
SWIDTH 462 0
DWIDTH 9 0
BBX 9 14 0 0
BITMAP
E380
E380
F380
7700
7700
3E00
3E00
1E00
1C00
1C00
1C00
1C00
1C00
1C00
ENDCHAR
STARTCHAR 007A
ENCODING 122
SWIDTH 565 0
DWIDTH 11 0
BBX 9 14 1 0
BITMAP
FF00
FF00
FF80
0780
0F00
0E00
1E00
3C00
3C00
7800
7000
FF80
FF80
7F80
ENDCHAR
STARTCHAR 007B
ENCODING 123
SWIDTH 257 0
DWIDTH 5 0
BBX 5 15 0 -1
BITMAP
38
38
30
30
30
30
60
C0
70
30
30
30
30
38
38
ENDCHAR
STARTCHAR 007C
ENCODING 124
SWIDTH 102 0
DWIDTH 2 0
BBX 2 15 0 -1
BITMAP
C0
C0
C0
C0
C0
C0
C0
C0
C0
C0
C0
C0
C0
C0
C0
ENDCHAR
STARTCHAR 007D
ENCODING 125
SWIDTH 257 0
DWIDTH 5 0
BBX 5 15 0 -1
BITMAP
F0
70
30
30
30
30
18
18
38
30
30
30
30
70
F0
ENDCHAR
STARTCHAR 007E
ENCODING 126
SWIDTH 411 0
DWIDTH 8 0
BBX 8 3 0 5
BITMAP
38
FF
82
ENDCHAR
STARTCHAR 00A1
ENCODING 161
SWIDTH 154 0
DWIDTH 3 0
BBX 3 14 0 0
BITMAP
60
60
60
00
40
40
60
60
60
60
60
60
E0
60
ENDCHAR
STARTCHAR 00A2
ENCODING 162
SWIDTH 514 0
DWIDTH 10 0
BBX 9 17 1 -2
BITMAP
1800
FE00
FF00
FF80
E380
E000
E000
E000
E000
E000
E000
E380
FF80
FF00
FF00
1800
1800
ENDCHAR
STARTCHAR 00A3
ENCODING 163
SWIDTH 462 0
DWIDTH 9 0
BBX 8 14 1 0
BITMAP
FF
FF
FF
E7
E0
E0
FF
FF
70
70
E0
FF
FF
FF
ENDCHAR
STARTCHAR 00A4
ENCODING 164
SWIDTH 308 0
DWIDTH 6 0
BBX 5 6 1 4
BITMAP
08
F0
D0
D0
F0
08
ENDCHAR
STARTCHAR 00A5
ENCODING 165
SWIDTH 462 0
DWIDTH 9 0
BBX 9 14 0 0
BITMAP
E380
E380
F380
7700
7700
3E00
3E00
7F00
7F00
1C00
7F00
7F00
1C00
1C00
ENDCHAR
STARTCHAR 00A6
ENCODING 166
SWIDTH 102 0
DWIDTH 2 0
BBX 2 15 0 -1
BITMAP
C0
C0
C0
C0
C0
C0
00
00
C0
C0
C0
C0
C0
C0
C0
ENDCHAR
STARTCHAR 00A7
ENCODING 167
SWIDTH 411 0
DWIDTH 8 0
BBX 7 14 1 0
BITMAP
7C
FC
FE
E0
F0
F8
DC
EE
7E
3E
1C
CC
FC
7C
ENDCHAR
STARTCHAR 00A8
ENCODING 168
SWIDTH 257 0
DWIDTH 5 0
BBX 5 2 0 14
BITMAP
C8
C8
ENDCHAR
STARTCHAR 00A9
ENCODING 169
SWIDTH 720 0
DWIDTH 14 0
BBX 14 15 0 -1
BITMAP
FFFC
FFFC
C00C
CF8C
CFCC
CC0C
CC0C
CC0C
CC0C
CFCC
CF8C
C00C
C00C
FFFC
7FF8
ENDCHAR
STARTCHAR 00AB
ENCODING 171
SWIDTH 462 0
DWIDTH 9 0
BBX 9 8 0 2
BITMAP
0880
3B80
6600
CC00
6600
3300
1980
0880
ENDCHAR
STARTCHAR 00AC
ENCODING 172
SWIDTH 514 0
DWIDTH 10 0
BBX 11 6 0 2
BITMAP
FFE0
FFE0
0060
0060
0060
0060
ENDCHAR
STARTCHAR 00AE
ENCODING 174
SWIDTH 360 0
DWIDTH 7 0
BBX 7 8 0 6
BITMAP
7E
82
BA
AA
BA
AA
82
FE
ENDCHAR
STARTCHAR 00AF
ENCODING 175
SWIDTH 411 0
DWIDTH 8 0
BBX 8 2 0 14
BITMAP
FF
FF
ENDCHAR
STARTCHAR 00B0
ENCODING 176
SWIDTH 205 0
DWIDTH 4 0
BBX 4 4 0 10
BITMAP
70
F0
D0
F0
ENDCHAR
STARTCHAR 00B1
ENCODING 177
SWIDTH 411 0
DWIDTH 8 0
BBX 8 11 0 0
BITMAP
18
18
18
FF
FF
18
18
18
00
FF
FF
ENDCHAR
STARTCHAR 00B4
ENCODING 180
SWIDTH 360 0
DWIDTH 7 0
BBX 7 2 0 14
BITMAP
FE
C0
ENDCHAR
STARTCHAR 00B6
ENCODING 182
SWIDTH 411 0
DWIDTH 8 0
BBX 6 14 1 0
BITMAP
FC
FC
FC
FC
FC
FC
FC
0C
0C
0C
0C
0C
0C
0C
ENDCHAR
STARTCHAR 00B7
ENCODING 183
SWIDTH 154 0
DWIDTH 3 0
BBX 3 3 0 6
BITMAP
E0
E0
E0
ENDCHAR
STARTCHAR 00B8
ENCODING 184
SWIDTH 154 0
DWIDTH 3 0
BBX 3 3 0 -3
BITMAP
20
60
E0
ENDCHAR
STARTCHAR 00BB
ENCODING 187
SWIDTH 462 0
DWIDTH 9 0
BBX 9 8 0 2
BITMAP
CC00
EE00
3300
1980
3B80
6600
CC00
8800
ENDCHAR
STARTCHAR 00BC
ENCODING 188
SWIDTH 565 0
DWIDTH 11 0
BBX 10 14 1 0
BITMAP
6180
E100
E300
6200
6600
6400
6C00
0980
1B80
1380
3780
37C0
67C0
6180
ENDCHAR
STARTCHAR 00BD
ENCODING 189
SWIDTH 617 0
DWIDTH 12 0
BBX 11 14 1 0
BITMAP
6180
E100
E300
6200
6600
6400
6C00
09E0
1BE0
1060
30C0
3180
63C0
63E0
ENDCHAR
STARTCHAR 00BE
ENCODING 190
SWIDTH 617 0
DWIDTH 12 0
BBX 11 14 1 0
BITMAP
F0C0
F180
1180
7100
7300
1200
F600
04C0
0DC0
09C0
1BC0
13E0
33E0
30C0
ENDCHAR
STARTCHAR 00BF
ENCODING 191
SWIDTH 514 0
DWIDTH 10 0
BBX 9 14 1 0
BITMAP
3800
3800
3800
0000
3800
3800
3800
3800
7000
E000
E380
FF80
FF00
FF00
ENDCHAR
STARTCHAR 00C0
ENCODING 192
SWIDTH 565 0
DWIDTH 11 0
BBX 11 16 0 0
BITMAP
3F00
0180
1F00
1F80
3F80
3980
3980
3980
31C0
71C0
71C0
7FC0
7FE0
70E0
E0E0
E0E0
ENDCHAR
STARTCHAR 00C1
ENCODING 193
SWIDTH 565 0
DWIDTH 11 0
BBX 11 16 0 0
BITMAP
3F80
3000
1F00
1F80
3F80
3980
3980
3980
31C0
71C0
71C0
7FC0
7FE0
70E0
E0E0
E0E0
ENDCHAR
STARTCHAR 00C2
ENCODING 194
SWIDTH 565 0
DWIDTH 11 0
BBX 11 17 0 0
BITMAP
1F00
3F80
20C0
1F00
1F80
3F80
3980
3980
3980
31C0
71C0
71C0
7FC0
7FE0
70E0
E0E0
E0E0
ENDCHAR
STARTCHAR 00C3
ENCODING 195
SWIDTH 565 0
DWIDTH 11 0
BBX 11 17 0 0
BITMAP
1C00
3FC0
2100
1F00
1F80
3F80
3980
3980
3980
31C0
71C0
71C0
7FC0
7FE0
70E0
E0E0
E0E0
ENDCHAR
STARTCHAR 00C4
ENCODING 196
SWIDTH 565 0
DWIDTH 11 0
BBX 11 16 0 0
BITMAP
1B00
1B00
1F00
1F80
3F80
3980
3980
3980
31C0
71C0
71C0
7FC0
7FE0
70E0
E0E0
E0E0
ENDCHAR
STARTCHAR 00C5
ENCODING 197
SWIDTH 565 0
DWIDTH 11 0
BBX 11 17 0 0
BITMAP
0E00
0A00
0600
1F00
1F80
3F80
3980
3980
3980
31C0
71C0
71C0
7FC0
7FE0
70E0
E0E0
E0E0
ENDCHAR
STARTCHAR 00C6
ENCODING 198
SWIDTH 822 0
DWIDTH 16 0
BBX 16 14 0 0
BITMAP
1FFC
1FFE
3FFE
39C7
39C0
39C0
31F8
71F8
71C0
7FC0
7FC7
71FF
E1FE
E1FC
ENDCHAR
STARTCHAR 00C7
ENCODING 199
SWIDTH 514 0
DWIDTH 10 0
BBX 9 17 1 -3
BITMAP
FE00
FF00
FF80
E380
E000
E000
E000
E000
E000
E000
E380
FF80
FF00
FF00
0800
1800
3800
ENDCHAR
STARTCHAR 00C8
ENCODING 200
SWIDTH 514 0
DWIDTH 10 0
BBX 9 16 1 0
BITMAP
7C00
0700
FE00
FF00
FF80
E380
E000
E000
FC00
FC00
E000
E000
E380
FF80
FF00
FF00
ENDCHAR
STARTCHAR 00C9
ENCODING 201
SWIDTH 514 0
DWIDTH 10 0
BBX 9 16 1 0
BITMAP
7E00
6000
FE00
FF00
FF80
E380
E000
E000
FC00
FC00
E000
E000
E380
FF80
FF00
FF00
ENDCHAR
STARTCHAR 00CA
ENCODING 202
SWIDTH 514 0
DWIDTH 10 0
BBX 9 17 1 0
BITMAP
7C00
FF00
8300
FE00
FF00
FF80
E380
E000
E000
FC00
FC00
E000
E000
E380
FF80
FF00
FF00
ENDCHAR
STARTCHAR 00CB
ENCODING 203
SWIDTH 514 0
DWIDTH 10 0
BBX 9 16 1 0
BITMAP
6600
6600
FE00
FF00
FF80
E380
E000
E000
FC00
FC00
E000
E000
E380
FF80
FF00
FF00
ENDCHAR
STARTCHAR 00CC
ENCODING 204
SWIDTH 205 0
DWIDTH 4 0
BBX 7 16 -1 0
BITMAP
FC
06
38
38
38
38
38
38
38
38
38
38
38
38
38
38
ENDCHAR
STARTCHAR 00CD
ENCODING 205
SWIDTH 205 0
DWIDTH 4 0
BBX 7 16 -1 0
BITMAP
FE
C0
38
38
38
38
38
38
38
38
38
38
38
38
38
38
ENDCHAR
STARTCHAR 00CE
ENCODING 206
SWIDTH 462 0
DWIDTH 9 0
BBX 8 17 1 0
BITMAP
7C
FF
83
38
38
38
38
38
38
38
38
38
38
38
38
38
38
ENDCHAR
STARTCHAR 00CF
ENCODING 207
SWIDTH 205 0
DWIDTH 4 0
BBX 5 16 0 0
BITMAP
D8
D8
70
70
70
70
70
70
70
70
70
70
70
70
70
70
ENDCHAR
STARTCHAR 00D0
ENCODING 208
SWIDTH 565 0
DWIDTH 11 0
BBX 11 14 0 0
BITMAP
7F80
7FC0
7FC0
71E0
71E0
71E0
F9E0
F9E0
71E0
71E0
71E0
7FE0
7FC0
7F80
ENDCHAR
STARTCHAR 00D1
ENCODING 209
SWIDTH 565 0
DWIDTH 11 0
BBX 9 17 1 0
BITMAP
3800
7F80
4200
6380
6380
F380
F380
FB80
FB80
FF80
FF80
EF80
EF80
E780
E780
E380
E300
ENDCHAR
STARTCHAR 00D2
ENCODING 210
SWIDTH 617 0
DWIDTH 12 0
BBX 10 16 1 0
BITMAP
3E00
0180
7F80
7FC0
FFC0
E1C0
E1C0
E1C0
E1C0
E1C0
E1C0
E1C0
E1C0
FFC0
FFC0
7F80
ENDCHAR
STARTCHAR 00D3
ENCODING 211
SWIDTH 617 0
DWIDTH 12 0
BBX 10 16 1 0
BITMAP
3F80
3000
7F80
7FC0
FFC0
E1C0
E1C0
E1C0
E1C0
E1C0
E1C0
E1C0
E1C0
FFC0
FFC0
7F80
ENDCHAR
STARTCHAR 00D4
ENCODING 212
SWIDTH 617 0
DWIDTH 12 0
BBX 10 17 1 0
BITMAP
3F00
7F80
6180
7F80
7FC0
FFC0
E1C0
E1C0
E1C0
E1C0
E1C0
E1C0
E1C0
E1C0
FFC0
FFC0
7F80
ENDCHAR
STARTCHAR 00D5
ENCODING 213
SWIDTH 617 0
DWIDTH 12 0
BBX 10 17 1 0
BITMAP
1800
7F80
4100
7F80
7FC0
FFC0
E1C0
E1C0
E1C0
E1C0
E1C0
E1C0
E1C0
E1C0
FFC0
FFC0
7F80
ENDCHAR
STARTCHAR 00D6
ENCODING 214
SWIDTH 617 0
DWIDTH 12 0
BBX 10 16 1 0
BITMAP
3300
3300
7F80
7FC0
FFC0
E1C0
E1C0
E1C0
E1C0
E1C0
E1C0
E1C0
E1C0
FFC0
FFC0
7F80
ENDCHAR
STARTCHAR 00D7
ENCODING 215
SWIDTH 360 0
DWIDTH 7 0
BBX 6 6 1 4
BITMAP
CC
FC
78
FC
CC
84
ENDCHAR
STARTCHAR 00D8
ENCODING 216
SWIDTH 617 0
DWIDTH 12 0
BBX 10 17 1 -2
BITMAP
00C0
7F80
7FC0
FFC0
E3C0
E7C0
E7C0
EDC0
EDC0
F9C0
F9C0
F9C0
FFC0
FFC0
7F80
6000
C000
ENDCHAR
STARTCHAR 00D9
ENCODING 217
SWIDTH 565 0
DWIDTH 11 0
BBX 10 16 1 0
BITMAP
3E00
0380
E1C0
E1C0
E1C0
E1C0
E1C0
E1C0
E1C0
E1C0
E1C0
E1C0
E1C0
FFC0
FFC0
7F80
ENDCHAR
STARTCHAR 00DA
ENCODING 218
SWIDTH 565 0
DWIDTH 11 0
BBX 10 16 1 0
BITMAP
3F00
3000
E1C0
E1C0
E1C0
E1C0
E1C0
E1C0
E1C0
E1C0
E1C0
E1C0
E1C0
FFC0
FFC0
7F80
ENDCHAR
STARTCHAR 00DB
ENCODING 219
SWIDTH 565 0
DWIDTH 11 0
BBX 10 17 1 0
BITMAP
3F00
7F80
6180
E1C0
E1C0
E1C0
E1C0
E1C0
E1C0
E1C0
E1C0
E1C0
E1C0
E1C0
FFC0
FFC0
7F80
ENDCHAR
STARTCHAR 00DC
ENCODING 220
SWIDTH 565 0
DWIDTH 11 0
BBX 10 16 1 0
BITMAP
1300
1300
E1C0
E1C0
E1C0
E1C0
E1C0
E1C0
E1C0
E1C0
E1C0
E1C0
E1C0
FFC0
FFC0
7F80
ENDCHAR
STARTCHAR 00DD
ENCODING 221
SWIDTH 462 0
DWIDTH 9 0
BBX 9 16 0 0
BITMAP
7F00
6000
E380
E380
F380
7700
7700
3E00
3E00
1E00
1C00
1C00
1C00
1C00
1C00
1C00
ENDCHAR
STARTCHAR 00DE
ENCODING 222
SWIDTH 514 0
DWIDTH 10 0
BBX 9 16 1 0
BITMAP
E000
E000
FE00
FF00
FF80
E780
E380
E380
E780
FF80
FF00
FE00
E000
E000
E000
E000
ENDCHAR
STARTCHAR 00DF
ENCODING 223
SWIDTH 565 0
DWIDTH 11 0
BBX 10 14 1 0
BITMAP
7F00
7F80
FF80
E3C0
E3C0
E3C0
EF80
EF80
EFC0
E3C0
E3C0
EFC0
EF80
EF00
ENDCHAR
STARTCHAR 00E0
ENCODING 224
SWIDTH 565 0
DWIDTH 11 0
BBX 11 16 0 0
BITMAP
3F00
0180
1F00
1F80
3F80
3980
3980
3980
31C0
71C0
71C0
7FC0
7FE0
70E0
E0E0
E0E0
ENDCHAR
STARTCHAR 00E1
ENCODING 225
SWIDTH 565 0
DWIDTH 11 0
BBX 11 16 0 0
BITMAP
3F80
3000
1F00
1F80
3F80
3980
3980
3980
31C0
71C0
71C0
7FC0
7FE0
70E0
E0E0
E0E0
ENDCHAR
STARTCHAR 00E2
ENCODING 226
SWIDTH 565 0
DWIDTH 11 0
BBX 11 17 0 0
BITMAP
1F00
3F80
20C0
1F00
1F80
3F80
3980
3980
3980
31C0
71C0
71C0
7FC0
7FE0
70E0
E0E0
E0E0
ENDCHAR
STARTCHAR 00E3
ENCODING 227
SWIDTH 565 0
DWIDTH 11 0
BBX 11 17 0 0
BITMAP
1C00
3FC0
2100
1F00
1F80
3F80
3980
3980
3980
31C0
71C0
71C0
7FC0
7FE0
70E0
E0E0
E0E0
ENDCHAR
STARTCHAR 00E4
ENCODING 228
SWIDTH 565 0
DWIDTH 11 0
BBX 11 16 0 0
BITMAP
1B00
1B00
1F00
1F80
3F80
3980
3980
3980
31C0
71C0
71C0
7FC0
7FE0
70E0
E0E0
E0E0
ENDCHAR
STARTCHAR 00E5
ENCODING 229
SWIDTH 565 0
DWIDTH 11 0
BBX 11 17 0 0
BITMAP
0E00
0A00
0600
1F00
1F80
3F80
3980
3980
3980
31C0
71C0
71C0
7FC0
7FE0
70E0
E0E0
E0E0
ENDCHAR
STARTCHAR 00E6
ENCODING 230
SWIDTH 822 0
DWIDTH 16 0
BBX 16 14 0 0
BITMAP
1FFC
1FFE
3FFE
39C7
39C0
39C0
31F8
71F8
71C0
7FC0
7FC7
71FF
E1FE
E1FC
ENDCHAR
STARTCHAR 00E7
ENCODING 231
SWIDTH 514 0
DWIDTH 10 0
BBX 9 17 1 -3
BITMAP
FE00
FF00
FF80
E380
E000
E000
E000
E000
E000
E000
E380
FF80
FF00
FF00
0800
1800
3800
ENDCHAR
STARTCHAR 00E8
ENCODING 232
SWIDTH 514 0
DWIDTH 10 0
BBX 9 16 1 0
BITMAP
7C00
0700
FE00
FF00
FF80
E380
E000
E000
FC00
FC00
E000
E000
E380
FF80
FF00
FF00
ENDCHAR
STARTCHAR 00E9
ENCODING 233
SWIDTH 514 0
DWIDTH 10 0
BBX 9 16 1 0
BITMAP
7E00
6000
FE00
FF00
FF80
E380
E000
E000
FC00
FC00
E000
E000
E380
FF80
FF00
FF00
ENDCHAR
STARTCHAR 00EA
ENCODING 234
SWIDTH 514 0
DWIDTH 10 0
BBX 9 17 1 0
BITMAP
7C00
FF00
8300
FE00
FF00
FF80
E380
E000
E000
FC00
FC00
E000
E000
E380
FF80
FF00
FF00
ENDCHAR
STARTCHAR 00EB
ENCODING 235
SWIDTH 514 0
DWIDTH 10 0
BBX 9 16 1 0
BITMAP
6400
6400
FE00
FF00
FF80
E380
E000
E000
FC00
FC00
E000
E000
E380
FF80
FF00
FF00
ENDCHAR
STARTCHAR 00EC
ENCODING 236
SWIDTH 205 0
DWIDTH 4 0
BBX 7 16 -1 0
BITMAP
F8
06
38
38
38
38
38
38
38
38
38
38
38
38
38
38
ENDCHAR
STARTCHAR 00ED
ENCODING 237
SWIDTH 205 0
DWIDTH 4 0
BBX 7 16 -1 0
BITMAP
FE
C0
38
38
38
38
38
38
38
38
38
38
38
38
38
38
ENDCHAR
STARTCHAR 00EE
ENCODING 238
SWIDTH 462 0
DWIDTH 9 0
BBX 8 17 1 0
BITMAP
7C
FF
83
00
38
38
38
38
38
38
38
38
38
38
38
38
38
ENDCHAR
STARTCHAR 00EF
ENCODING 239
SWIDTH 205 0
DWIDTH 4 0
BBX 5 16 0 0
BITMAP
D8
D8
70
70
70
70
70
70
70
70
70
70
70
70
70
70
ENDCHAR
STARTCHAR 00F0
ENCODING 240
SWIDTH 565 0
DWIDTH 11 0
BBX 11 14 0 0
BITMAP
7F80
7FC0
7FC0
71E0
71E0
71E0
F9E0
F9E0
71E0
71E0
71E0
7FE0
7FC0
7F80
ENDCHAR
STARTCHAR 00F1
ENCODING 241
SWIDTH 565 0
DWIDTH 11 0
BBX 9 17 1 0
BITMAP
3800
7F80
4200
6380
6380
F380
F380
FB80
FB80
FF80
FF80
EF80
EF80
E780
E780
E380
E300
ENDCHAR
STARTCHAR 00F2
ENCODING 242
SWIDTH 617 0
DWIDTH 12 0
BBX 10 16 1 0
BITMAP
7E00
0300
7F80
7FC0
FFC0
E1C0
E1C0
E1C0
E1C0
E1C0
E1C0
E1C0
E1C0
FFC0
FFC0
7F80
ENDCHAR
STARTCHAR 00F3
ENCODING 243
SWIDTH 617 0
DWIDTH 12 0
BBX 10 16 1 0
BITMAP
7F00
6000
7F80
7FC0
FFC0
E1C0
E1C0
E1C0
E1C0
E1C0
E1C0
E1C0
E1C0
FFC0
FFC0
7F80
ENDCHAR
STARTCHAR 00F4
ENCODING 244
SWIDTH 617 0
DWIDTH 12 0
BBX 10 17 1 0
BITMAP
3F00
7F80
6180
7F80
7FC0
FFC0
E1C0
E1C0
E1C0
E1C0
E1C0
E1C0
E1C0
E1C0
FFC0
FFC0
7F80
ENDCHAR
STARTCHAR 00F5
ENCODING 245
SWIDTH 617 0
DWIDTH 12 0
BBX 10 17 1 0
BITMAP
1800
7F80
4100
7F80
7FC0
FFC0
E1C0
E1C0
E1C0
E1C0
E1C0
E1C0
E1C0
E1C0
FFC0
FFC0
7F80
ENDCHAR
STARTCHAR 00F6
ENCODING 246
SWIDTH 617 0
DWIDTH 12 0
BBX 10 16 1 0
BITMAP
3300
3300
7F80
7FC0
FFC0
E1C0
E1C0
E1C0
E1C0
E1C0
E1C0
E1C0
E1C0
FFC0
FFC0
7F80
ENDCHAR
STARTCHAR 00F7
ENCODING 247
SWIDTH 411 0
DWIDTH 8 0
BBX 8 8 0 3
BITMAP
18
18
00
FF
FF
00
18
18
ENDCHAR
STARTCHAR 00F8
ENCODING 248
SWIDTH 617 0
DWIDTH 12 0
BBX 10 17 1 -2
BITMAP
00C0
7F80
7FC0
FFC0
E3C0
E7C0
E7C0
EDC0
EDC0
F9C0
F9C0
F9C0
FFC0
FFC0
7F80
6000
C000
ENDCHAR
STARTCHAR 00F9
ENCODING 249
SWIDTH 565 0
DWIDTH 11 0
BBX 10 16 1 0
BITMAP
3E00
0380
E1C0
E1C0
E1C0
E1C0
E1C0
E1C0
E1C0
E1C0
E1C0
E1C0
E1C0
FFC0
FFC0
7F80
ENDCHAR
STARTCHAR 00FA
ENCODING 250
SWIDTH 565 0
DWIDTH 11 0
BBX 10 16 1 0
BITMAP
3F00
3000
E1C0
E1C0
E1C0
E1C0
E1C0
E1C0
E1C0
E1C0
E1C0
E1C0
E1C0
FFC0
FFC0
7F80
ENDCHAR
STARTCHAR 00FB
ENCODING 251
SWIDTH 565 0
DWIDTH 11 0
BBX 10 17 1 0
BITMAP
3F00
7F80
6180
E1C0
E1C0
E1C0
E1C0
E1C0
E1C0
E1C0
E1C0
E1C0
E1C0
E1C0
FFC0
FFC0
7F80
ENDCHAR
STARTCHAR 00FC
ENCODING 252
SWIDTH 565 0
DWIDTH 11 0
BBX 10 16 1 0
BITMAP
3300
3300
E1C0
E1C0
E1C0
E1C0
E1C0
E1C0
E1C0
E1C0
E1C0
E1C0
E1C0
FFC0
FFC0
7F80
ENDCHAR
STARTCHAR 00FD
ENCODING 253
SWIDTH 462 0
DWIDTH 9 0
BBX 9 16 0 0
BITMAP
7F00
6000
E380
E380
F380
7700
7700
3E00
3E00
1E00
1C00
1C00
1C00
1C00
1C00
1C00
ENDCHAR
STARTCHAR 00FE
ENCODING 254
SWIDTH 514 0
DWIDTH 10 0
BBX 9 16 1 0
BITMAP
E000
E000
FE00
FF00
FF80
E780
E380
E380
E780
FF80
FF00
FE00
E000
E000
E000
E000
ENDCHAR
STARTCHAR 00FF
ENCODING 255
SWIDTH 462 0
DWIDTH 9 0
BBX 9 16 0 0
BITMAP
3600
3600
E380
E380
F380
7700
7700
3E00
3E00
1E00
1C00
1C00
1C00
1C00
1C00
1C00
ENDCHAR
STARTCHAR 0100
ENCODING 256
SWIDTH 565 0
DWIDTH 11 0
BBX 11 16 0 0
BITMAP
3F80
3F80
1F00
1F80
3F80
3980
3980
3980
31C0
71C0
71C0
7FC0
7FE0
70E0
E0E0
E0E0
ENDCHAR
STARTCHAR 0101
ENCODING 257
SWIDTH 565 0
DWIDTH 11 0
BBX 11 16 0 0
BITMAP
3F80
3F80
1F00
1F80
3F80
3980
3980
3980
31C0
71C0
71C0
7FC0
7FE0
70E0
E0E0
E0E0
ENDCHAR
STARTCHAR 0102
ENCODING 258
SWIDTH 565 0
DWIDTH 11 0
BBX 11 17 0 0
BITMAP
20C0
3F80
1F00
1F00
1F80
3F80
3980
3980
3980
31C0
71C0
71C0
7FC0
7FE0
70E0
E0E0
E0E0
ENDCHAR
STARTCHAR 0103
ENCODING 259
SWIDTH 565 0
DWIDTH 11 0
BBX 11 17 0 0
BITMAP
20C0
3F80
1F00
1F00
1F80
3F80
3980
3980
3980
31C0
71C0
71C0
7FC0
7FE0
70E0
E0E0
E0E0
ENDCHAR
STARTCHAR 0104
ENCODING 260
SWIDTH 565 0
DWIDTH 11 0
BBX 12 17 0 -3
BITMAP
1F00
1F80
3F80
3980
3980
3980
31C0
71C0
71C0
7FC0
7FE0
70E0
E0E0
E0E0
0020
0050
0070
ENDCHAR
STARTCHAR 0105
ENCODING 261
SWIDTH 565 0
DWIDTH 11 0
BBX 12 17 0 -3
BITMAP
1F00
1F80
3F80
3980
3980
3980
31C0
71C0
71C0
7FC0
7FE0
70E0
E0E0
E0E0
0020
0050
0070
ENDCHAR
STARTCHAR 0106
ENCODING 262
SWIDTH 514 0
DWIDTH 10 0
BBX 9 16 1 0
BITMAP
7F00
6000
FE00
FF00
FF80
E380
E000
E000
E000
E000
E000
E000
E380
FF80
FF00
FF00
ENDCHAR
STARTCHAR 0107
ENCODING 263
SWIDTH 514 0
DWIDTH 10 0
BBX 9 16 1 0
BITMAP
7F00
6000
FE00
FF00
FF80
E380
E000
E000
E000
E000
E000
E000
E380
FF80
FF00
FF00
ENDCHAR
STARTCHAR 0108
ENCODING 264
SWIDTH 514 0
DWIDTH 10 0
BBX 9 17 1 0
BITMAP
7C00
FF00
8300
FE00
FF00
FF80
E380
E000
E000
E000
E000
E000
E000
E380
FF80
FF00
FF00
ENDCHAR
STARTCHAR 0109
ENCODING 265
SWIDTH 514 0
DWIDTH 10 0
BBX 9 17 1 0
BITMAP
7C00
FF00
8300
FE00
FF00
FF80
E380
E000
E000
E000
E000
E000
E000
E380
FF80
FF00
FF00
ENDCHAR
STARTCHAR 010A
ENCODING 266
SWIDTH 514 0
DWIDTH 10 0
BBX 9 17 1 0
BITMAP
1800
1800
1800
FE00
FF00
FF80
E380
E000
E000
E000
E000
E000
E000
E380
FF80
FF00
FF00
ENDCHAR
STARTCHAR 010B
ENCODING 267
SWIDTH 514 0
DWIDTH 10 0
BBX 9 17 1 0
BITMAP
1800
1800
1800
FE00
FF00
FF80
E380
E000
E000
E000
E000
E000
E000
E380
FF80
FF00
FF00
ENDCHAR
STARTCHAR 010C
ENCODING 268
SWIDTH 514 0
DWIDTH 10 0
BBX 9 17 1 0
BITMAP
4600
3C00
1800
FE00
FF00
FF80
E380
E000
E000
E000
E000
E000
E000
E380
FF80
FF00
FF00
ENDCHAR
STARTCHAR 010D
ENCODING 269
SWIDTH 514 0
DWIDTH 10 0
BBX 9 17 1 0
BITMAP
4600
3C00
1800
FE00
FF00
FF80
E380
E000
E000
E000
E000
E000
E000
E380
FF80
FF00
FF00
ENDCHAR
STARTCHAR 010E
ENCODING 270
SWIDTH 565 0
DWIDTH 11 0
BBX 10 17 1 0
BITMAP
2200
3E00
1C00
FF00
FF80
FF80
E3C0
E3C0
E3C0
E3C0
E3C0
E3C0
E3C0
E3C0
FFC0
FF80
FF00
ENDCHAR
STARTCHAR 010F
ENCODING 271
SWIDTH 720 0
DWIDTH 14 0
BBX 14 14 1 0
BITMAP
FF08
FF8C
FF8C
E3D8
E3F0
E3C0
E3C0
E3C0
E3C0
E3C0
E3C0
FFC0
FF80
FF00
ENDCHAR
STARTCHAR 0110
ENCODING 272
SWIDTH 565 0
DWIDTH 11 0
BBX 11 14 0 0
BITMAP
7F80
7FC0
7FC0
71E0
71E0
71E0
F9E0
F9E0
71E0
71E0
71E0
7FE0
7FC0
7F80
ENDCHAR
STARTCHAR 0111
ENCODING 273
SWIDTH 565 0
DWIDTH 11 0
BBX 11 14 0 0
BITMAP
7F80
7FC0
7FC0
71E0
71E0
71E0
F9E0
F9E0
71E0
71E0
71E0
7FE0
7FC0
7F80
ENDCHAR
STARTCHAR 0112
ENCODING 274
SWIDTH 514 0
DWIDTH 10 0
BBX 9 16 1 0
BITMAP
FF00
FF00
FE00
FF00
FF80
E380
E000
E000
FC00
FC00
E000
E000
E380
FF80
FF00
FF00
ENDCHAR
STARTCHAR 0113
ENCODING 275
SWIDTH 514 0
DWIDTH 10 0
BBX 9 16 1 0
BITMAP
FF00
FF00
FE00
FF00
FF80
E380
E000
E000
FC00
FC00
E000
E000
E380
FF80
FF00
FF00
ENDCHAR
STARTCHAR 0116
ENCODING 278
SWIDTH 514 0
DWIDTH 10 0
BBX 9 17 1 0
BITMAP
1800
1800
1800
FE00
FF00
FF80
E380
E000
E000
FC00
FC00
E000
E000
E380
FF80
FF00
FF00
ENDCHAR
STARTCHAR 0117
ENCODING 279
SWIDTH 514 0
DWIDTH 10 0
BBX 9 17 1 0
BITMAP
1800
1800
1800
FE00
FF00
FF80
E380
E000
E000
FC00
FC00
E000
E000
E380
FF80
FF00
FF00
ENDCHAR
STARTCHAR 0118
ENCODING 280
SWIDTH 514 0
DWIDTH 10 0
BBX 9 17 1 -3
BITMAP
FE00
FF00
FF80
E380
E000
E000
FC00
FC00
E000
E000
E380
FF80
FF00
FF00
1000
3400
3C00
ENDCHAR
STARTCHAR 0119
ENCODING 281
SWIDTH 514 0
DWIDTH 10 0
BBX 9 17 1 -3
BITMAP
FE00
FF00
FF80
E380
E000
E000
FC00
FC00
E000
E000
E380
FF80
FF00
FF00
1000
3400
3C00
ENDCHAR
STARTCHAR 011C
ENCODING 284
SWIDTH 514 0
DWIDTH 10 0
BBX 9 17 1 0
BITMAP
3E00
FF00
C100
FF00
FF00
FF80
E380
E000
E000
EF80
EF80
EF80
E380
E380
FF80
FF80
FF80
ENDCHAR
STARTCHAR 011D
ENCODING 285
SWIDTH 514 0
DWIDTH 10 0
BBX 9 17 1 0
BITMAP
3E00
FF00
C100
FF00
FF00
FF80
E380
E000
E000
EF80
EF80
EF80
E380
E380
FF80
FF80
FF80
ENDCHAR
STARTCHAR 011E
ENCODING 286
SWIDTH 514 0
DWIDTH 10 0
BBX 9 17 1 0
BITMAP
C100
7F00
3E00
FF00
FF00
FF80
E380
E000
E000
EF80
EF80
EF80
E380
E380
FF80
FF80
FF80
ENDCHAR
STARTCHAR 011F
ENCODING 287
SWIDTH 514 0
DWIDTH 10 0
BBX 9 17 1 0
BITMAP
C100
7F00
3E00
FF00
FF00
FF80
E380
E000
E000
EF80
EF80
EF80
E380
E380
FF80
FF80
FF80
ENDCHAR
STARTCHAR 0120
ENCODING 288
SWIDTH 514 0
DWIDTH 10 0
BBX 9 17 1 0
BITMAP
0800
1C00
0800
FF00
FF00
FF80
E380
E000
E000
EF80
EF80
EF80
E380
E380
FF80
FF80
FF80
ENDCHAR
STARTCHAR 0121
ENCODING 289
SWIDTH 514 0
DWIDTH 10 0
BBX 9 17 1 0
BITMAP
0800
1C00
0800
FF00
FF00
FF80
E380
E000
E000
EF80
EF80
EF80
E380
E380
FF80
FF80
FF80
ENDCHAR
STARTCHAR 0122
ENCODING 290
SWIDTH 514 0
DWIDTH 10 0
BBX 9 17 1 -3
BITMAP
FF00
FF00
FF80
E380
E000
E000
EF80
EF80
EF80
E380
E380
FF80
FF80
FF80
0800
0800
1800
ENDCHAR
STARTCHAR 0123
ENCODING 291
SWIDTH 514 0
DWIDTH 10 0
BBX 9 17 1 -3
BITMAP
FF00
FF00
FF80
E380
E000
E000
EF80
EF80
EF80
E380
E380
FF80
FF80
FF80
0800
0800
1800
ENDCHAR
STARTCHAR 0124
ENCODING 292
SWIDTH 565 0
DWIDTH 11 0
BBX 10 17 1 0
BITMAP
3E00
7F00
4180
E3C0
E3C0
E3C0
E3C0
E3C0
FFC0
FFC0
FFC0
E3C0
E3C0
E3C0
E3C0
E3C0
E3C0
ENDCHAR
STARTCHAR 0125
ENCODING 293
SWIDTH 565 0
DWIDTH 11 0
BBX 10 17 1 0
BITMAP
3E00
7F00
4180
E3C0
E3C0
E3C0
E3C0
E3C0
FFC0
FFC0
FFC0
E3C0
E3C0
E3C0
E3C0
E3C0
E3C0
ENDCHAR
STARTCHAR 0126
ENCODING 294
SWIDTH 565 0
DWIDTH 11 0
BBX 13 14 -1 0
BITMAP
38F0
38F0
FFF8
FFF8
38F0
3FF0
3FF0
3FF0
38F0
38F0
38F0
38F0
38F0
38F0
ENDCHAR
STARTCHAR 0127
ENCODING 295
SWIDTH 565 0
DWIDTH 11 0
BBX 13 14 -1 0
BITMAP
38F0
38F0
FFF8
FFF8
38F0
3FF0
3FF0
3FF0
38F0
38F0
38F0
38F0
38F0
38F0
ENDCHAR
STARTCHAR 0128
ENCODING 296
SWIDTH 205 0
DWIDTH 4 0
BBX 8 17 -2 0
BITMAP
30
FF
82
1C
1C
1C
1C
1C
1C
1C
1C
1C
1C
1C
1C
1C
1C
ENDCHAR
STARTCHAR 0129
ENCODING 297
SWIDTH 205 0
DWIDTH 4 0
BBX 8 17 -2 0
BITMAP
38
FF
82
1C
1C
1C
1C
1C
1C
1C
1C
1C
1C
1C
1C
1C
1C
ENDCHAR
STARTCHAR 012A
ENCODING 298
SWIDTH 205 0
DWIDTH 4 0
BBX 8 16 -2 0
BITMAP
FF
FF
1C
1C
1C
1C
1C
1C
1C
1C
1C
1C
1C
1C
1C
1C
ENDCHAR
STARTCHAR 012B
ENCODING 299
SWIDTH 205 0
DWIDTH 4 0
BBX 8 16 -2 0
BITMAP
FF
FF
1C
1C
1C
1C
1C
1C
1C
1C
1C
1C
1C
1C
1C
1C
ENDCHAR
STARTCHAR 012E
ENCODING 302
SWIDTH 205 0
DWIDTH 4 0
BBX 3 17 1 -3
BITMAP
E0
E0
E0
E0
E0
E0
E0
E0
E0
E0
E0
E0
E0
E0
C0
A0
E0
ENDCHAR
STARTCHAR 012F
ENCODING 303
SWIDTH 205 0
DWIDTH 4 0
BBX 3 17 1 -3
BITMAP
E0
E0
E0
E0
E0
E0
E0
E0
E0
E0
E0
E0
E0
E0
C0
A0
E0
ENDCHAR
STARTCHAR 0134
ENCODING 308
SWIDTH 462 0
DWIDTH 9 0
BBX 8 17 1 0
BITMAP
1E
7F
61
7F
7F
7F
07
07
07
07
07
07
07
E7
FF
FF
7F
ENDCHAR
STARTCHAR 0135
ENCODING 309
SWIDTH 462 0
DWIDTH 9 0
BBX 8 17 1 0
BITMAP
1E
7F
61
7F
7F
7F
07
07
07
07
07
07
07
E7
FF
FF
7F
ENDCHAR
STARTCHAR 0136
ENCODING 310
SWIDTH 565 0
DWIDTH 11 0
BBX 9 17 1 -3
BITMAP
E380
E380
E780
EF00
EF00
FE00
FC00
FC00
FC00
FE00
EF00
E780
E780
E380
0800
0800
0800
ENDCHAR
STARTCHAR 0137
ENCODING 311
SWIDTH 565 0
DWIDTH 11 0
BBX 9 17 1 -3
BITMAP
E380
E380
E780
EF00
EF00
FE00
FC00
FC00
FC00
FE00
EF00
E780
E780
E380
0800
0800
0800
ENDCHAR
STARTCHAR 0139
ENCODING 313
SWIDTH 411 0
DWIDTH 8 0
BBX 9 16 -1 0
BITMAP
FE00
C000
3800
3800
3800
3800
3800
3800
3800
3800
3800
3800
3800
3F80
3F80
3F00
ENDCHAR
STARTCHAR 013A
ENCODING 314
SWIDTH 411 0
DWIDTH 8 0
BBX 9 16 -1 0
BITMAP
FE00
C000
3800
3800
3800
3800
3800
3800
3800
3800
3800
3800
3800
3F80
3F80
3F00
ENDCHAR
STARTCHAR 013C
ENCODING 316
SWIDTH 411 0
DWIDTH 8 0
BBX 7 17 1 -3
BITMAP
E0
E0
E0
E0
E0
E0
E0
E0
E0
E0
E0
FE
FE
FC
10
10
30
ENDCHAR
STARTCHAR 013D
ENCODING 317
SWIDTH 411 0
DWIDTH 8 0
BBX 8 17 0 0
BITMAP
88
F8
70
70
70
70
70
70
70
70
70
70
70
70
7F
7F
7E
ENDCHAR
STARTCHAR 013E
ENCODING 318
SWIDTH 411 0
DWIDTH 8 0
BBX 8 17 0 0
BITMAP
88
F8
70
70
70
70
70
70
70
70
70
70
70
70
7F
7F
7E
ENDCHAR
STARTCHAR 0141
ENCODING 321
SWIDTH 462 0
DWIDTH 9 0
BBX 9 14 1 0
BITMAP
3800
3800
3800
3A00
3E00
3E00
7800
F800
F800
3800
3800
3F80
3F00
3F00
ENDCHAR
STARTCHAR 0142
ENCODING 322
SWIDTH 462 0
DWIDTH 9 0
BBX 9 14 1 0
BITMAP
3800
3800
3800
3A00
3E00
3E00
7800
F800
F800
3800
3800
3F80
3F00
3F00
ENDCHAR
STARTCHAR 0143
ENCODING 323
SWIDTH 565 0
DWIDTH 11 0
BBX 9 16 1 0
BITMAP
7F00
6000
6380
6380
F380
F380
FB80
FB80
FF80
FF80
EF80
EF80
E780
E780
E380
E300
ENDCHAR
STARTCHAR 0144
ENCODING 324
SWIDTH 565 0
DWIDTH 11 0
BBX 9 16 1 0
BITMAP
7F00
6000
6380
6380
F380
F380
FB80
FB80
FF80
FF80
EF80
EF80
E780
E780
E380
E300
ENDCHAR
STARTCHAR 0145
ENCODING 325
SWIDTH 565 0
DWIDTH 11 0
BBX 9 17 1 -3
BITMAP
6380
6380
F380
F380
FB80
FB80
FF80
FF80
EF80
EF80
E780
E780
E380
E300
0800
0C00
0800
ENDCHAR
STARTCHAR 0146
ENCODING 326
SWIDTH 565 0
DWIDTH 11 0
BBX 9 17 1 -3
BITMAP
6380
6380
F380
F380
FB80
FB80
FF80
FF80
EF80
EF80
E780
E780
E380
E300
0800
0C00
0800
ENDCHAR
STARTCHAR 0147
ENCODING 327
SWIDTH 565 0
DWIDTH 11 0
BBX 9 17 1 0
BITMAP
2200
3E00
1C00
6380
6380
F380
F380
FB80
FB80
FF80
FF80
EF80
EF80
E780
E780
E380
E300
ENDCHAR
STARTCHAR 0148
ENCODING 328
SWIDTH 565 0
DWIDTH 11 0
BBX 9 17 1 0
BITMAP
2200
3E00
1C00
6380
6380
F380
F380
FB80
FB80
FF80
FF80
EF80
EF80
E780
E780
E380
E300
ENDCHAR
STARTCHAR 014C
ENCODING 332
SWIDTH 617 0
DWIDTH 12 0
BBX 10 16 1 0
BITMAP
7F80
7F80
7F80
7FC0
FFC0
E1C0
E1C0
E1C0
E1C0
E1C0
E1C0
E1C0
E1C0
FFC0
FFC0
7F80
ENDCHAR
STARTCHAR 014D
ENCODING 333
SWIDTH 617 0
DWIDTH 12 0
BBX 10 16 1 0
BITMAP
7F80
7F80
7F80
7FC0
FFC0
E1C0
E1C0
E1C0
E1C0
E1C0
E1C0
E1C0
E1C0
FFC0
FFC0
7F80
ENDCHAR
STARTCHAR 0150
ENCODING 336
SWIDTH 617 0
DWIDTH 12 0
BBX 10 18 1 0
BITMAP
0F00
0F00
0A00
1E00
7F80
7FC0
FFC0
E1C0
E1C0
E1C0
E1C0
E1C0
E1C0
E1C0
E1C0
FFC0
FFC0
7F80
ENDCHAR
STARTCHAR 0151
ENCODING 337
SWIDTH 617 0
DWIDTH 12 0
BBX 10 18 1 0
BITMAP
0F00
0F00
0A00
1E00
7F80
7FC0
FFC0
E1C0
E1C0
E1C0
E1C0
E1C0
E1C0
E1C0
E1C0
FFC0
FFC0
7F80
ENDCHAR
STARTCHAR 0152
ENCODING 338
SWIDTH 822 0
DWIDTH 16 0
BBX 15 14 1 0
BITMAP
7FF8
7FFC
FFFE
E38E
E380
E380
E3F8
E3F8
E380
E380
E38E
FFFE
FFFC
7FFC
ENDCHAR
STARTCHAR 0153
ENCODING 339
SWIDTH 822 0
DWIDTH 16 0
BBX 15 14 1 0
BITMAP
7FF8
7FFC
FFFE
E38E
E380
E380
E3F8
E3F8
E380
E380
E38E
FFFE
FFFC
7FFC
ENDCHAR
STARTCHAR 0154
ENCODING 340
SWIDTH 514 0
DWIDTH 10 0
BBX 9 16 1 0
BITMAP
7F00
6000
FE00
FF00
FF80
E780
E380
E780
FF00
FF00
FE00
E700
E700
E780
E380
E380
ENDCHAR
STARTCHAR 0155
ENCODING 341
SWIDTH 514 0
DWIDTH 10 0
BBX 9 16 1 0
BITMAP
7F00
6000
FE00
FF00
FF80
E780
E380
E780
FF00
FF00
FE00
E700
E700
E780
E380
E380
ENDCHAR
STARTCHAR 0156
ENCODING 342
SWIDTH 514 0
DWIDTH 10 0
BBX 9 17 1 -3
BITMAP
FE00
FF00
FF80
E780
E380
E780
FF00
FF00
FE00
E700
E700
E780
E380
E380
0800
0800
0800
ENDCHAR
STARTCHAR 0157
ENCODING 343
SWIDTH 514 0
DWIDTH 10 0
BBX 9 17 1 -3
BITMAP
FE00
FF00
FF80
E780
E380
E780
FF00
FF00
FE00
E700
E700
E780
E380
E380
0800
0800
0800
ENDCHAR
STARTCHAR 0158
ENCODING 344
SWIDTH 514 0
DWIDTH 10 0
BBX 9 17 1 0
BITMAP
4600
3C00
1800
FE00
FF00
FF80
E780
E380
E780
FF00
FF00
FE00
E700
E700
E780
E380
E380
ENDCHAR
STARTCHAR 0159
ENCODING 345
SWIDTH 514 0
DWIDTH 10 0
BBX 9 17 1 0
BITMAP
4600
3C00
1800
FE00
FF00
FF80
E780
E380
E780
FF00
FF00
FE00
E700
E700
E780
E380
E380
ENDCHAR
STARTCHAR 015C
ENCODING 348
SWIDTH 514 0
DWIDTH 10 0
BBX 9 17 1 0
BITMAP
7C00
FF00
8300
FE00
FF00
FF80
E380
F000
7800
3C00
1E00
0F00
0780
C780
FF80
FF80
7F80
ENDCHAR
STARTCHAR 015D
ENCODING 349
SWIDTH 514 0
DWIDTH 10 0
BBX 9 17 1 0
BITMAP
7C00
FF00
8300
FE00
FF00
FF80
E380
F000
7800
3C00
1E00
0F00
0780
C780
FF80
FF80
7F80
ENDCHAR
STARTCHAR 015E
ENCODING 350
SWIDTH 514 0
DWIDTH 10 0
BBX 9 17 1 -3
BITMAP
FE00
FF00
FF80
E380
F000
7800
3C00
1E00
0F00
0780
C780
FF80
FF80
7F80
0C00
0800
1800
ENDCHAR
STARTCHAR 015F
ENCODING 351
SWIDTH 514 0
DWIDTH 10 0
BBX 9 17 1 -3
BITMAP
FE00
FF00
FF80
E380
F000
7800
3C00
1E00
0F00
0780
C780
FF80
FF80
7F80
0C00
0800
1800
ENDCHAR
STARTCHAR 0160
ENCODING 352
SWIDTH 514 0
DWIDTH 10 0
BBX 9 17 1 0
BITMAP
6200
3C00
1800
FE00
FF00
FF80
E380
F000
7800
3C00
1E00
0F00
0780
C780
FF80
FF80
7F80
ENDCHAR
STARTCHAR 0161
ENCODING 353
SWIDTH 514 0
DWIDTH 10 0
BBX 9 17 1 0
BITMAP
6200
3C00
1800
FE00
FF00
FF80
E380
F000
7800
3C00
1E00
0F00
0780
C780
FF80
FF80
7F80
ENDCHAR
STARTCHAR 0162
ENCODING 354
SWIDTH 514 0
DWIDTH 10 0
BBX 10 17 0 -3
BITMAP
7F80
7FC0
FFC0
EEC0
0E00
0E00
0E00
0E00
0E00
0E00
0E00
0E00
0E00
0E00
0400
0C00
0C00
ENDCHAR
STARTCHAR 0163
ENCODING 355
SWIDTH 514 0
DWIDTH 10 0
BBX 10 17 0 -3
BITMAP
7F80
7FC0
FFC0
EEC0
0E00
0E00
0E00
0E00
0E00
0E00
0E00
0E00
0E00
0E00
0400
0C00
0C00
ENDCHAR
STARTCHAR 0164
ENCODING 356
SWIDTH 514 0
DWIDTH 10 0
BBX 10 17 0 0
BITMAP
1100
1F00
0C00
7F80
7FC0
FFC0
EEC0
0E00
0E00
0E00
0E00
0E00
0E00
0E00
0E00
0E00
0E00
ENDCHAR
STARTCHAR 0165
ENCODING 357
SWIDTH 514 0
DWIDTH 10 0
BBX 10 17 0 0
BITMAP
1100
1F00
0C00
7F80
7FC0
FFC0
EEC0
0E00
0E00
0E00
0E00
0E00
0E00
0E00
0E00
0E00
0E00
ENDCHAR
STARTCHAR 0166
ENCODING 358
SWIDTH 514 0
DWIDTH 10 0
BBX 10 14 0 0
BITMAP
7F80
7FC0
FFC0
EEC0
0E00
0E00
7F80
7F80
0E00
0E00
0E00
0E00
0E00
0E00
ENDCHAR
STARTCHAR 0167
ENCODING 359
SWIDTH 514 0
DWIDTH 10 0
BBX 10 14 0 0
BITMAP
7F80
7FC0
FFC0
EEC0
0E00
0E00
7F80
7F80
0E00
0E00
0E00
0E00
0E00
0E00
ENDCHAR
STARTCHAR 0168
ENCODING 360
SWIDTH 565 0
DWIDTH 11 0
BBX 10 17 1 0
BITMAP
1800
7F80
4100
E1C0
E1C0
E1C0
E1C0
E1C0
E1C0
E1C0
E1C0
E1C0
E1C0
E1C0
FFC0
FFC0
7F80
ENDCHAR
STARTCHAR 0169
ENCODING 361
SWIDTH 565 0
DWIDTH 11 0
BBX 10 17 1 0
BITMAP
1800
7F80
4100
E1C0
E1C0
E1C0
E1C0
E1C0
E1C0
E1C0
E1C0
E1C0
E1C0
E1C0
FFC0
FFC0
7F80
ENDCHAR
STARTCHAR 016A
ENCODING 362
SWIDTH 565 0
DWIDTH 11 0
BBX 10 16 1 0
BITMAP
7F80
7F80
E1C0
E1C0
E1C0
E1C0
E1C0
E1C0
E1C0
E1C0
E1C0
E1C0
E1C0
FFC0
FFC0
7F80
ENDCHAR
STARTCHAR 016B
ENCODING 363
SWIDTH 565 0
DWIDTH 11 0
BBX 10 16 1 0
BITMAP
7F80
7F80
E1C0
E1C0
E1C0
E1C0
E1C0
E1C0
E1C0
E1C0
E1C0
E1C0
E1C0
FFC0
FFC0
7F80
ENDCHAR
STARTCHAR 016E
ENCODING 366
SWIDTH 565 0
DWIDTH 11 0
BBX 10 17 1 0
BITMAP
0C00
1400
0C00
E1C0
E1C0
E1C0
E1C0
E1C0
E1C0
E1C0
E1C0
E1C0
E1C0
E1C0
FFC0
FFC0
7F80
ENDCHAR
STARTCHAR 016F
ENCODING 367
SWIDTH 565 0
DWIDTH 11 0
BBX 10 17 1 0
BITMAP
0C00
1400
0C00
E1C0
E1C0
E1C0
E1C0
E1C0
E1C0
E1C0
E1C0
E1C0
E1C0
E1C0
FFC0
FFC0
7F80
ENDCHAR
STARTCHAR 0170
ENCODING 368
SWIDTH 565 0
DWIDTH 11 0
BBX 10 18 1 0
BITMAP
0F00
0F00
0A00
1E00
E1C0
E1C0
E1C0
E1C0
E1C0
E1C0
E1C0
E1C0
E1C0
E1C0
E1C0
FFC0
FFC0
7F80
ENDCHAR
STARTCHAR 0171
ENCODING 369
SWIDTH 565 0
DWIDTH 11 0
BBX 10 18 1 0
BITMAP
0F00
0F00
0A00
1E00
E1C0
E1C0
E1C0
E1C0
E1C0
E1C0
E1C0
E1C0
E1C0
E1C0
E1C0
FFC0
FFC0
7F80
ENDCHAR
STARTCHAR 0172
ENCODING 370
SWIDTH 565 0
DWIDTH 11 0
BBX 10 17 1 -3
BITMAP
E1C0
E1C0
E1C0
E1C0
E1C0
E1C0
E1C0
E1C0
E1C0
E1C0
E1C0
FFC0
FFC0
7F80
0800
1A00
1C00
ENDCHAR
STARTCHAR 0173
ENCODING 371
SWIDTH 565 0
DWIDTH 11 0
BBX 10 17 1 -3
BITMAP
E1C0
E1C0
E1C0
E1C0
E1C0
E1C0
E1C0
E1C0
E1C0
E1C0
E1C0
FFC0
FFC0
7F80
0800
1A00
1C00
ENDCHAR
STARTCHAR 0174
ENCODING 372
SWIDTH 874 0
DWIDTH 17 0
BBX 15 17 1 0
BITMAP
07C0
0FE0
0830
E00E
E00E
E00E
E00E
F38E
739E
73DC
77DC
76DC
7EFC
3EFC
3E78
3C78
3C78
ENDCHAR
STARTCHAR 0175
ENCODING 373
SWIDTH 874 0
DWIDTH 17 0
BBX 15 17 1 0
BITMAP
07C0
0FE0
0830
E00E
E00E
E00E
E00E
F38E
739E
73DC
77DC
76DC
7EFC
3EFC
3E78
3C78
3C78
ENDCHAR
STARTCHAR 0176
ENCODING 374
SWIDTH 462 0
DWIDTH 9 0
BBX 9 17 0 0
BITMAP
3E00
7F00
4180
E380
E380
F380
7700
7700
3E00
3E00
1E00
1C00
1C00
1C00
1C00
1C00
1C00
ENDCHAR
STARTCHAR 0177
ENCODING 375
SWIDTH 462 0
DWIDTH 9 0
BBX 9 17 0 0
BITMAP
3E00
7F00
4180
E380
E380
F380
7700
7700
3E00
3E00
1E00
1C00
1C00
1C00
1C00
1C00
1C00
ENDCHAR
STARTCHAR 0178
ENCODING 376
SWIDTH 462 0
DWIDTH 9 0
BBX 9 16 0 0
BITMAP
3600
3600
E380
E380
F380
7700
7700
3E00
3E00
1E00
1C00
1C00
1C00
1C00
1C00
1C00
ENDCHAR
STARTCHAR 017B
ENCODING 379
SWIDTH 565 0
DWIDTH 11 0
BBX 9 17 1 0
BITMAP
0800
1C00
0800
FF00
FF00
FF80
0780
0F00
0E00
1E00
3C00
3C00
7800
7000
FF80
FF80
7F80
ENDCHAR
STARTCHAR 017C
ENCODING 380
SWIDTH 565 0
DWIDTH 11 0
BBX 9 18 1 0
BITMAP
0800
1C00
1C00
0000
FF00
FF00
FF80
0780
0F00
0E00
1E00
3C00
3C00
7800
7000
FF80
FF80
7F80
ENDCHAR
STARTCHAR 017D
ENCODING 381
SWIDTH 565 0
DWIDTH 11 0
BBX 9 17 1 0
BITMAP
2200
3E00
1C00
FF00
FF00
FF80
0780
0F00
0E00
1E00
3C00
3C00
7800
7000
FF80
FF80
7F80
ENDCHAR
STARTCHAR 017E
ENCODING 382
SWIDTH 565 0
DWIDTH 11 0
BBX 9 17 1 0
BITMAP
2200
3E00
1C00
FF00
FF00
FF80
0780
0F00
0E00
1E00
3C00
3C00
7800
7000
FF80
FF80
7F80
ENDCHAR
STARTCHAR 01A0
ENCODING 416
SWIDTH 617 0
DWIDTH 12 0
BBX 11 15 1 0
BITMAP
0060
7FE0
7FC0
FFC0
E1C0
E1C0
E1C0
E1C0
E1C0
E1C0
E1C0
E1C0
FFC0
FFC0
7F80
ENDCHAR
STARTCHAR 01A1
ENCODING 417
SWIDTH 617 0
DWIDTH 12 0
BBX 11 15 1 0
BITMAP
0060
7FE0
7FC0
FFC0
E1C0
E1C0
E1C0
E1C0
E1C0
E1C0
E1C0
E1C0
FFC0
FFC0
7F80
ENDCHAR
STARTCHAR 01AF
ENCODING 431
SWIDTH 565 0
DWIDTH 11 0
BBX 11 15 1 0
BITMAP
0060
E1E0
E1C0
E1C0
E1C0
E1C0
E1C0
E1C0
E1C0
E1C0
E1C0
E1C0
FFC0
FFC0
7F80
ENDCHAR
STARTCHAR 01B0
ENCODING 432
SWIDTH 565 0
DWIDTH 11 0
BBX 11 15 1 0
BITMAP
0060
E1E0
E1C0
E1C0
E1C0
E1C0
E1C0
E1C0
E1C0
E1C0
E1C0
E1C0
FFC0
FFC0
7F80
ENDCHAR
STARTCHAR 0218
ENCODING 536
SWIDTH 514 0
DWIDTH 10 0
BBX 9 17 1 -3
BITMAP
FE00
FF00
FF80
E380
F000
7800
3C00
1E00
0F00
0780
C780
FF80
FF80
7F80
0800
0800
0800
ENDCHAR
STARTCHAR 0219
ENCODING 537
SWIDTH 514 0
DWIDTH 10 0
BBX 9 17 1 -3
BITMAP
FE00
FF00
FF80
E380
F000
7800
3C00
1E00
0F00
0780
C780
FF80
FF80
7F80
0800
0800
0800
ENDCHAR
STARTCHAR 021A
ENCODING 538
SWIDTH 514 0
DWIDTH 10 0
BBX 10 17 0 -3
BITMAP
7F80
7FC0
FFC0
EEC0
0E00
0E00
0E00
0E00
0E00
0E00
0E00
0E00
0E00
0E00
0400
0400
0800
ENDCHAR
STARTCHAR 021B
ENCODING 539
SWIDTH 514 0
DWIDTH 10 0
BBX 10 17 0 -3
BITMAP
7F80
7FC0
FFC0
EEC0
0E00
0E00
0E00
0E00
0E00
0E00
0E00
0E00
0E00
0E00
0400
0400
0800
ENDCHAR
STARTCHAR 0259
ENCODING 601
SWIDTH 514 0
DWIDTH 10 0
BBX 9 14 1 0
BITMAP
7F80
7F80
FF80
E380
0380
0380
FB80
FB80
FB80
E380
E380
FF80
FF80
FF80
ENDCHAR
STARTCHAR 02C6
ENCODING 710
SWIDTH 411 0
DWIDTH 8 0
BBX 8 3 0 14
BITMAP
3E
7F
C1
ENDCHAR
STARTCHAR 02C7
ENCODING 711
SWIDTH 257 0
DWIDTH 5 0
BBX 6 3 0 14
BITMAP
8C
78
30
ENDCHAR
STARTCHAR 02D8
ENCODING 728
SWIDTH 411 0
DWIDTH 8 0
BBX 8 3 0 14
BITMAP
C1
7F
3E
ENDCHAR
STARTCHAR 02D9
ENCODING 729
SWIDTH 154 0
DWIDTH 3 0
BBX 3 3 0 15
BITMAP
40
E0
60
ENDCHAR
STARTCHAR 02DA
ENCODING 730
SWIDTH 154 0
DWIDTH 3 0
BBX 3 3 0 14
BITMAP
E0
A0
60
ENDCHAR
STARTCHAR 02DB
ENCODING 731
SWIDTH 205 0
DWIDTH 4 0
BBX 4 3 0 -3
BITMAP
40
D0
F0
ENDCHAR
STARTCHAR 02DC
ENCODING 732
SWIDTH 411 0
DWIDTH 8 0
BBX 8 3 0 14
BITMAP
38
FF
82
ENDCHAR
STARTCHAR 02DD
ENCODING 733
SWIDTH 205 0
DWIDTH 4 0
BBX 5 4 0 14
BITMAP
78
78
50
F0
ENDCHAR
STARTCHAR 1E20
ENCODING 7712
SWIDTH 514 0
DWIDTH 10 0
BBX 9 16 1 0
BITMAP
FF00
FF00
FF00
FF00
FF80
E380
E000
E000
EF80
EF80
EF80
E380
E380
FF80
FF80
FF80
ENDCHAR
STARTCHAR 1E3E
ENCODING 7742
SWIDTH 668 0
DWIDTH 13 0
BBX 12 16 1 0
BITMAP
3F80
3000
79C0
79E0
F9F0
FBF0
FBF0
FB70
EF70
EF70
EF70
EF70
EE70
E070
E070
E070
ENDCHAR
STARTCHAR 1E3F
ENCODING 7743
SWIDTH 668 0
DWIDTH 13 0
BBX 12 16 1 0
BITMAP
3F80
3000
79C0
79E0
F9F0
FBF0
FBF0
FB70
EF70
EF70
EF70
EF70
EE70
E070
E070
E070
ENDCHAR
STARTCHAR 1E44
ENCODING 7748
SWIDTH 565 0
DWIDTH 11 0
BBX 9 17 1 0
BITMAP
0800
1C00
0800
6380
6380
F380
F380
FB80
FB80
FF80
FF80
EF80
EF80
E780
E780
E380
E300
ENDCHAR
STARTCHAR 1E45
ENCODING 7749
SWIDTH 565 0
DWIDTH 11 0
BBX 9 17 1 0
BITMAP
0800
1C00
0800
6380
6380
F380
F380
FB80
FB80
FF80
FF80
EF80
EF80
E780
E780
E380
E300
ENDCHAR
STARTCHAR 1E80
ENCODING 7808
SWIDTH 874 0
DWIDTH 17 0
BBX 15 16 1 0
BITMAP
0FC0
0060
E00E
E00E
E00E
E00E
F38E
739E
73DC
77DC
76DC
7EFC
3EFC
3E78
3C78
3C78
ENDCHAR
STARTCHAR 1E81
ENCODING 7809
SWIDTH 874 0
DWIDTH 17 0
BBX 15 16 1 0
BITMAP
0FC0
0060
E00E
E00E
E00E
E00E
F38E
739E
73DC
77DC
76DC
7EFC
3EFC
3E78
3C78
3C78
ENDCHAR
STARTCHAR 1E82
ENCODING 7810
SWIDTH 874 0
DWIDTH 17 0
BBX 15 16 1 0
BITMAP
0FE0
0C00
E00E
E00E
E00E
E00E
F38E
739E
73DC
77DC
76DC
7EFC
3EFC
3E78
3C78
3C78
ENDCHAR
STARTCHAR 1E83
ENCODING 7811
SWIDTH 874 0
DWIDTH 17 0
BBX 15 16 1 0
BITMAP
0FE0
0C00
E00E
E00E
E00E
E00E
F38E
739E
73DC
77DC
76DC
7EFC
3EFC
3E78
3C78
3C78
ENDCHAR
STARTCHAR 1E84
ENCODING 7812
SWIDTH 874 0
DWIDTH 17 0
BBX 15 16 1 0
BITMAP
06C0
06C0
E00E
E00E
E00E
E00E
F38E
739E
73DC
77DC
76DC
7EFC
3EFC
3E78
3C78
3C78
ENDCHAR
STARTCHAR 1E85
ENCODING 7813
SWIDTH 874 0
DWIDTH 17 0
BBX 15 16 1 0
BITMAP
06C0
06C0
E00E
E00E
E00E
E00E
F38E
739E
73DC
77DC
76DC
7EFC
3EFC
3E78
3C78
3C78
ENDCHAR
STARTCHAR 1EA0
ENCODING 7840
SWIDTH 565 0
DWIDTH 11 0
BBX 11 16 0 -2
BITMAP
1F00
1F80
3F80
3980
3980
3980
31C0
71C0
71C0
7FC0
7FE0
70E0
E0E0
E0E0
0000
0E00
ENDCHAR
STARTCHAR 1EA1
ENCODING 7841
SWIDTH 565 0
DWIDTH 11 0
BBX 11 16 0 -2
BITMAP
1F00
1F80
3F80
3980
3980
3980
31C0
71C0
71C0
7FC0
7FE0
70E0
E0E0
E0E0
0000
0E00
ENDCHAR
STARTCHAR 1EA2
ENCODING 7842
SWIDTH 565 0
DWIDTH 11 0
BBX 11 18 0 0
BITMAP
0E00
0F00
0600
0600
1F00
1F80
3F80
3980
3980
3980
31C0
71C0
71C0
7FC0
7FE0
70E0
E0E0
E0E0
ENDCHAR
STARTCHAR 1EA3
ENCODING 7843
SWIDTH 565 0
DWIDTH 11 0
BBX 11 18 0 0
BITMAP
0E00
0F00
0600
0600
1F00
1F80
3F80
3980
3980
3980
31C0
71C0
71C0
7FC0
7FE0
70E0
E0E0
E0E0
ENDCHAR
STARTCHAR 1EA4
ENCODING 7844
SWIDTH 565 0
DWIDTH 11 0
BBX 11 20 0 0
BITMAP
0080
3F00
2000
1F00
3F80
20C0
1F00
1F80
3F80
3980
3980
3980
31C0
71C0
71C0
7FC0
7FE0
70E0
E0E0
E0E0
ENDCHAR
STARTCHAR 1EA5
ENCODING 7845
SWIDTH 565 0
DWIDTH 11 0
BBX 11 20 0 0
BITMAP
0080
3F00
2000
1F00
3F80
20C0
1F00
1F80
3F80
3980
3980
3980
31C0
71C0
71C0
7FC0
7FE0
70E0
E0E0
E0E0
ENDCHAR
STARTCHAR 1EA6
ENCODING 7846
SWIDTH 565 0
DWIDTH 11 0
BBX 11 20 0 0
BITMAP
2000
3F00
0080
1F00
3F80
20C0
1F00
1F80
3F80
3980
3980
3980
31C0
71C0
71C0
7FC0
7FE0
70E0
E0E0
E0E0
ENDCHAR
STARTCHAR 1EA7
ENCODING 7847
SWIDTH 565 0
DWIDTH 11 0
BBX 11 20 0 0
BITMAP
2000
3F00
0080
1F00
3F80
20C0
1F00
1F80
3F80
3980
3980
3980
31C0
71C0
71C0
7FC0
7FE0
70E0
E0E0
E0E0
ENDCHAR
STARTCHAR 1EA8
ENCODING 7848
SWIDTH 565 0
DWIDTH 11 0
BBX 11 21 0 0
BITMAP
0E00
0F00
0600
0600
1F00
3F80
20C0
1F00
1F80
3F80
3980
3980
3980
31C0
71C0
71C0
7FC0
7FE0
70E0
E0E0
E0E0
ENDCHAR
STARTCHAR 1EA9
ENCODING 7849
SWIDTH 565 0
DWIDTH 11 0
BBX 11 21 0 0
BITMAP
0E00
0F00
0600
0600
1F00
3F80
20C0
1F00
1F80
3F80
3980
3980
3980
31C0
71C0
71C0
7FC0
7FE0
70E0
E0E0
E0E0
ENDCHAR
STARTCHAR 1EAA
ENCODING 7850
SWIDTH 565 0
DWIDTH 11 0
BBX 11 20 0 0
BITMAP
1C40
37C0
0000
1F00
3F80
20C0
1F00
1F80
3F80
3980
3980
3980
31C0
71C0
71C0
7FC0
7FE0
70E0
E0E0
E0E0
ENDCHAR
STARTCHAR 1EAB
ENCODING 7851
SWIDTH 565 0
DWIDTH 11 0
BBX 11 20 0 0
BITMAP
1C40
37C0
0000
1F00
3F80
20C0
1F00
1F80
3F80
3980
3980
3980
31C0
71C0
71C0
7FC0
7FE0
70E0
E0E0
E0E0
ENDCHAR
STARTCHAR 1EAC
ENCODING 7852
SWIDTH 565 0
DWIDTH 11 0
BBX 11 19 0 -2
BITMAP
1F00
3F80
20C0
1F00
1F80
3F80
3980
3980
3980
31C0
71C0
71C0
7FC0
7FE0
70E0
E0E0
E0E0
0000
0E00
ENDCHAR
STARTCHAR 1EAD
ENCODING 7853
SWIDTH 565 0
DWIDTH 11 0
BBX 11 19 0 -2
BITMAP
1F00
3F80
20C0
1F00
1F80
3F80
3980
3980
3980
31C0
71C0
71C0
7FC0
7FE0
70E0
E0E0
E0E0
0000
0E00
ENDCHAR
STARTCHAR 1EAE
ENCODING 7854
SWIDTH 565 0
DWIDTH 11 0
BBX 11 20 0 0
BITMAP
0080
3F00
2000
20C0
3F80
1F00
1F00
1F80
3F80
3980
3980
3980
31C0
71C0
71C0
7FC0
7FE0
70E0
E0E0
E0E0
ENDCHAR
STARTCHAR 1EAF
ENCODING 7855
SWIDTH 565 0
DWIDTH 11 0
BBX 11 20 0 0
BITMAP
0080
3F00
2000
20C0
3F80
1F00
1F00
1F80
3F80
3980
3980
3980
31C0
71C0
71C0
7FC0
7FE0
70E0
E0E0
E0E0
ENDCHAR
STARTCHAR 1EB0
ENCODING 7856
SWIDTH 565 0
DWIDTH 11 0
BBX 11 20 0 0
BITMAP
2000
3F00
0080
20C0
3F80
1F00
1F00
1F80
3F80
3980
3980
3980
31C0
71C0
71C0
7FC0
7FE0
70E0
E0E0
E0E0
ENDCHAR
STARTCHAR 1EB1
ENCODING 7857
SWIDTH 565 0
DWIDTH 11 0
BBX 11 20 0 0
BITMAP
2000
3F00
0080
20C0
3F80
1F00
1F00
1F80
3F80
3980
3980
3980
31C0
71C0
71C0
7FC0
7FE0
70E0
E0E0
E0E0
ENDCHAR
STARTCHAR 1EB2
ENCODING 7858
SWIDTH 565 0
DWIDTH 11 0
BBX 11 20 0 0
BITMAP
0E00
0A00
0600
20C0
3F80
1F00
1F00
1F80
3F80
3980
3980
3980
31C0
71C0
71C0
7FC0
7FE0
70E0
E0E0
E0E0
ENDCHAR
STARTCHAR 1EB3
ENCODING 7859
SWIDTH 565 0
DWIDTH 11 0
BBX 11 20 0 0
BITMAP
0E00
0A00
0600
20C0
3F80
1F00
1F00
1F80
3F80
3980
3980
3980
31C0
71C0
71C0
7FC0
7FE0
70E0
E0E0
E0E0
ENDCHAR
STARTCHAR 1EB4
ENCODING 7860
SWIDTH 565 0
DWIDTH 11 0
BBX 11 20 0 0
BITMAP
1C40
37C0
0000
20C0
3F80
1F00
1F00
1F80
3F80
3980
3980
3980
31C0
71C0
71C0
7FC0
7FE0
70E0
E0E0
E0E0
ENDCHAR
STARTCHAR 1EB5
ENCODING 7861
SWIDTH 565 0
DWIDTH 11 0
BBX 11 20 0 0
BITMAP
1C40
37C0
0000
20C0
3F80
1F00
1F00
1F80
3F80
3980
3980
3980
31C0
71C0
71C0
7FC0
7FE0
70E0
E0E0
E0E0
ENDCHAR
STARTCHAR 1EB6
ENCODING 7862
SWIDTH 565 0
DWIDTH 11 0
BBX 11 19 0 -2
BITMAP
20C0
3F80
1F00
1F00
1F80
3F80
3980
3980
3980
31C0
71C0
71C0
7FC0
7FE0
70E0
E0E0
E0E0
0000
0E00
ENDCHAR
STARTCHAR 1EB7
ENCODING 7863
SWIDTH 565 0
DWIDTH 11 0
BBX 11 19 0 -2
BITMAP
20C0
3F80
1F00
1F00
1F80
3F80
3980
3980
3980
31C0
71C0
71C0
7FC0
7FE0
70E0
E0E0
E0E0
0000
0E00
ENDCHAR
STARTCHAR 1EB8
ENCODING 7864
SWIDTH 514 0
DWIDTH 10 0
BBX 9 16 1 -2
BITMAP
FE00
FF00
FF80
E380
E000
E000
FC00
FC00
E000
E000
E380
FF80
FF00
FF00
0000
3C00
ENDCHAR
STARTCHAR 1EB9
ENCODING 7865
SWIDTH 514 0
DWIDTH 10 0
BBX 9 16 1 -2
BITMAP
FE00
FF00
FF80
E380
E000
E000
FC00
FC00
E000
E000
E380
FF80
FF00
FF00
0000
3C00
ENDCHAR
STARTCHAR 1EBA
ENCODING 7866
SWIDTH 514 0
DWIDTH 10 0
BBX 9 18 1 0
BITMAP
1800
3C00
0800
0800
FE00
FF00
FF80
E380
E000
E000
FC00
FC00
E000
E000
E380
FF80
FF00
FF00
ENDCHAR
STARTCHAR 1EBB
ENCODING 7867
SWIDTH 514 0
DWIDTH 10 0
BBX 9 18 1 0
BITMAP
1800
3C00
0800
0800
FE00
FF00
FF80
E380
E000
E000
FC00
FC00
E000
E000
E380
FF80
FF00
FF00
ENDCHAR
STARTCHAR 1EBC
ENCODING 7868
SWIDTH 514 0
DWIDTH 10 0
BBX 9 17 1 0
BITMAP
7000
DF00
8400
FE00
FF00
FF80
E380
E000
E000
FC00
FC00
E000
E000
E380
FF80
FF00
FF00
ENDCHAR
STARTCHAR 1EBD
ENCODING 7869
SWIDTH 514 0
DWIDTH 10 0
BBX 9 17 1 0
BITMAP
7000
DF00
8400
FE00
FF00
FF80
E380
E000
E000
FC00
FC00
E000
E000
E380
FF80
FF00
FF00
ENDCHAR
STARTCHAR 1EBE
ENCODING 7870
SWIDTH 514 0
DWIDTH 10 0
BBX 9 20 1 0
BITMAP
0100
7E00
4000
7C00
FF00
8300
FE00
FF00
FF80
E380
E000
E000
FC00
FC00
E000
E000
E380
FF80
FF00
FF00
ENDCHAR
STARTCHAR 1EBF
ENCODING 7871
SWIDTH 514 0
DWIDTH 10 0
BBX 9 20 1 0
BITMAP
0100
7E00
4000
7C00
FF00
8300
FE00
FF00
FF80
E380
E000
E000
FC00
FC00
E000
E000
E380
FF80
FF00
FF00
ENDCHAR
STARTCHAR 1EC0
ENCODING 7872
SWIDTH 514 0
DWIDTH 10 0
BBX 9 20 1 0
BITMAP
4000
7E00
0000
7C00
FF00
8300
FE00
FF00
FF80
E380
E000
E000
FC00
FC00
E000
E000
E380
FF80
FF00
FF00
ENDCHAR
STARTCHAR 1EC1
ENCODING 7873
SWIDTH 514 0
DWIDTH 10 0
BBX 9 20 1 0
BITMAP
4000
7E00
0000
7C00
FF00
8300
FE00
FF00
FF80
E380
E000
E000
FC00
FC00
E000
E000
E380
FF80
FF00
FF00
ENDCHAR
STARTCHAR 1EC2
ENCODING 7874
SWIDTH 514 0
DWIDTH 10 0
BBX 9 21 1 0
BITMAP
1800
3C00
0800
0800
7C00
FF00
8300
FE00
FF00
FF80
E380
E000
E000
FC00
FC00
E000
E000
E380
FF80
FF00
FF00
ENDCHAR
STARTCHAR 1EC3
ENCODING 7875
SWIDTH 514 0
DWIDTH 10 0
BBX 9 21 1 0
BITMAP
1800
3C00
0800
0800
7C00
FF00
8300
FE00
FF00
FF80
E380
E000
E000
FC00
FC00
E000
E000
E380
FF80
FF00
FF00
ENDCHAR
STARTCHAR 1EC4
ENCODING 7876
SWIDTH 514 0
DWIDTH 10 0
BBX 9 20 1 0
BITMAP
7100
DF00
0000
7C00
FF00
8300
FE00
FF00
FF80
E380
E000
E000
FC00
FC00
E000
E000
E380
FF80
FF00
FF00
ENDCHAR
STARTCHAR 1EC5
ENCODING 7877
SWIDTH 514 0
DWIDTH 10 0
BBX 9 20 1 0
BITMAP
7100
DF00
0000
7C00
FF00
8300
FE00
FF00
FF80
E380
E000
E000
FC00
FC00
E000
E000
E380
FF80
FF00
FF00
ENDCHAR
STARTCHAR 1EC6
ENCODING 7878
SWIDTH 514 0
DWIDTH 10 0
BBX 9 19 1 -2
BITMAP
7C00
FF00
8300
FE00
FF00
FF80
E380
E000
E000
FC00
FC00
E000
E000
E380
FF80
FF00
FF00
0000
3C00
ENDCHAR
STARTCHAR 1EC7
ENCODING 7879
SWIDTH 514 0
DWIDTH 10 0
BBX 9 19 1 -2
BITMAP
7C00
FF00
8300
FE00
FF00
FF80
E380
E000
E000
FC00
FC00
E000
E000
E380
FF80
FF00
FF00
0000
3C00
ENDCHAR
STARTCHAR 1EC8
ENCODING 7880
SWIDTH 205 0
DWIDTH 4 0
BBX 4 18 0 0
BITMAP
70
F0
20
20
70
70
70
70
70
70
70
70
70
70
70
70
70
70
ENDCHAR
STARTCHAR 1EC9
ENCODING 7881
SWIDTH 205 0
DWIDTH 4 0
BBX 4 18 0 0
BITMAP
70
F0
20
20
70
70
70
70
70
70
70
70
70
70
70
70
70
70
ENDCHAR
STARTCHAR 1ECA
ENCODING 7882
SWIDTH 205 0
DWIDTH 4 0
BBX 3 16 1 -2
BITMAP
E0
E0
E0
E0
E0
E0
E0
E0
E0
E0
E0
E0
E0
E0
00
E0
ENDCHAR
STARTCHAR 1ECB
ENCODING 7883
SWIDTH 205 0
DWIDTH 4 0
BBX 3 16 1 -2
BITMAP
E0
E0
E0
E0
E0
E0
E0
E0
E0
E0
E0
E0
E0
E0
00
E0
ENDCHAR
STARTCHAR 1ECC
ENCODING 7884
SWIDTH 617 0
DWIDTH 12 0
BBX 10 16 1 -2
BITMAP
7F80
7FC0
FFC0
E1C0
E1C0
E1C0
E1C0
E1C0
E1C0
E1C0
E1C0
FFC0
FFC0
7F80
0000
1E00
ENDCHAR
STARTCHAR 1ECD
ENCODING 7885
SWIDTH 617 0
DWIDTH 12 0
BBX 10 16 1 -2
BITMAP
7F80
7FC0
FFC0
E1C0
E1C0
E1C0
E1C0
E1C0
E1C0
E1C0
E1C0
FFC0
FFC0
7F80
0000
1E00
ENDCHAR
STARTCHAR 1ECE
ENCODING 7886
SWIDTH 617 0
DWIDTH 12 0
BBX 10 18 1 0
BITMAP
0C00
1E00
0400
0400
7F80
7FC0
FFC0
E1C0
E1C0
E1C0
E1C0
E1C0
E1C0
E1C0
E1C0
FFC0
FFC0
7F80
ENDCHAR
STARTCHAR 1ECF
ENCODING 7887
SWIDTH 617 0
DWIDTH 12 0
BBX 10 18 1 0
BITMAP
0C00
1E00
0400
0400
7F80
7FC0
FFC0
E1C0
E1C0
E1C0
E1C0
E1C0
E1C0
E1C0
E1C0
FFC0
FFC0
7F80
ENDCHAR
STARTCHAR 1ED0
ENCODING 7888
SWIDTH 617 0
DWIDTH 12 0
BBX 10 20 1 0
BITMAP
0080
3F00
2000
3F00
7F80
6180
7F80
7FC0
FFC0
E1C0
E1C0
E1C0
E1C0
E1C0
E1C0
E1C0
E1C0
FFC0
FFC0
7F80
ENDCHAR
STARTCHAR 1ED1
ENCODING 7889
SWIDTH 617 0
DWIDTH 12 0
BBX 10 20 1 0
BITMAP
0080
3F00
2000
3F00
7F80
6180
7F80
7FC0
FFC0
E1C0
E1C0
E1C0
E1C0
E1C0
E1C0
E1C0
E1C0
FFC0
FFC0
7F80
ENDCHAR
STARTCHAR 1ED2
ENCODING 7890
SWIDTH 617 0
DWIDTH 12 0
BBX 10 20 1 0
BITMAP
2000
3F00
0000
3F00
7F80
6180
7F80
7FC0
FFC0
E1C0
E1C0
E1C0
E1C0
E1C0
E1C0
E1C0
E1C0
FFC0
FFC0
7F80
ENDCHAR
STARTCHAR 1ED3
ENCODING 7891
SWIDTH 617 0
DWIDTH 12 0
BBX 10 20 1 0
BITMAP
2000
3F00
0000
3F00
7F80
6180
7F80
7FC0
FFC0
E1C0
E1C0
E1C0
E1C0
E1C0
E1C0
E1C0
E1C0
FFC0
FFC0
7F80
ENDCHAR
STARTCHAR 1ED4
ENCODING 7892
SWIDTH 617 0
DWIDTH 12 0
BBX 10 21 1 0
BITMAP
0E00
1E00
0400
0400
3F00
7F80
6180
7F80
7FC0
FFC0
E1C0
E1C0
E1C0
E1C0
E1C0
E1C0
E1C0
E1C0
FFC0
FFC0
7F80
ENDCHAR
STARTCHAR 1ED5
ENCODING 7893
SWIDTH 617 0
DWIDTH 12 0
BBX 10 21 1 0
BITMAP
0E00
1E00
0400
0400
3F00
7F80
6180
7F80
7FC0
FFC0
E1C0
E1C0
E1C0
E1C0
E1C0
E1C0
E1C0
E1C0
FFC0
FFC0
7F80
ENDCHAR
STARTCHAR 1ED6
ENCODING 7894
SWIDTH 617 0
DWIDTH 12 0
BBX 10 20 1 0
BITMAP
3C80
6F80
4000
3F00
7F80
6180
7F80
7FC0
FFC0
E1C0
E1C0
E1C0
E1C0
E1C0
E1C0
E1C0
E1C0
FFC0
FFC0
7F80
ENDCHAR
STARTCHAR 1ED7
ENCODING 7895
SWIDTH 617 0
DWIDTH 12 0
BBX 10 20 1 0
BITMAP
3C80
6F80
4000
3F00
7F80
6180
7F80
7FC0
FFC0
E1C0
E1C0
E1C0
E1C0
E1C0
E1C0
E1C0
E1C0
FFC0
FFC0
7F80
ENDCHAR
STARTCHAR 1ED8
ENCODING 7896
SWIDTH 617 0
DWIDTH 12 0
BBX 10 19 1 -2
BITMAP
3F00
7F80
6180
7F80
7FC0
FFC0
E1C0
E1C0
E1C0
E1C0
E1C0
E1C0
E1C0
E1C0
FFC0
FFC0
7F80
0000
1E00
ENDCHAR
STARTCHAR 1ED9
ENCODING 7897
SWIDTH 617 0
DWIDTH 12 0
BBX 10 19 1 -2
BITMAP
3F00
7F80
6180
7F80
7FC0
FFC0
E1C0
E1C0
E1C0
E1C0
E1C0
E1C0
E1C0
E1C0
FFC0
FFC0
7F80
0000
1E00
ENDCHAR
STARTCHAR 1EDA
ENCODING 7898
SWIDTH 617 0
DWIDTH 12 0
BBX 11 16 1 0
BITMAP
3F00
3060
7FE0
7FC0
FFC0
E1C0
E1C0
E1C0
E1C0
E1C0
E1C0
E1C0
E1C0
FFC0
FFC0
7F80
ENDCHAR
STARTCHAR 1EDB
ENCODING 7899
SWIDTH 617 0
DWIDTH 12 0
BBX 11 16 1 0
BITMAP
3F00
3060
7FE0
7FC0
FFC0
E1C0
E1C0
E1C0
E1C0
E1C0
E1C0
E1C0
E1C0
FFC0
FFC0
7F80
ENDCHAR
STARTCHAR 1EDC
ENCODING 7900
SWIDTH 617 0
DWIDTH 12 0
BBX 11 16 1 0
BITMAP
7E00
0360
7FE0
7FC0
FFC0
E1C0
E1C0
E1C0
E1C0
E1C0
E1C0
E1C0
E1C0
FFC0
FFC0
7F80
ENDCHAR
STARTCHAR 1EDD
ENCODING 7901
SWIDTH 617 0
DWIDTH 12 0
BBX 11 16 1 0
BITMAP
7E00
0360
7FE0
7FC0
FFC0
E1C0
E1C0
E1C0
E1C0
E1C0
E1C0
E1C0
E1C0
FFC0
FFC0
7F80
ENDCHAR
STARTCHAR 1EDE
ENCODING 7902
SWIDTH 617 0
DWIDTH 12 0
BBX 11 18 1 0
BITMAP
0C00
1E00
0400
0460
7FE0
7FC0
FFC0
E1C0
E1C0
E1C0
E1C0
E1C0
E1C0
E1C0
E1C0
FFC0
FFC0
7F80
ENDCHAR
STARTCHAR 1EDF
ENCODING 7903
SWIDTH 617 0
DWIDTH 12 0
BBX 11 18 1 0
BITMAP
0C00
1E00
0400
0460
7FE0
7FC0
FFC0
E1C0
E1C0
E1C0
E1C0
E1C0
E1C0
E1C0
E1C0
FFC0
FFC0
7F80
ENDCHAR
STARTCHAR 1EE0
ENCODING 7904
SWIDTH 617 0
DWIDTH 12 0
BBX 11 18 1 0
BITMAP
1800
7F80
4300
0060
7FE0
7FC0
FFC0
E1C0
E1C0
E1C0
E1C0
E1C0
E1C0
E1C0
E1C0
FFC0
FFC0
7F80
ENDCHAR
STARTCHAR 1EE1
ENCODING 7905
SWIDTH 617 0
DWIDTH 12 0
BBX 11 18 1 0
BITMAP
1800
7F80
4300
0060
7FE0
7FC0
FFC0
E1C0
E1C0
E1C0
E1C0
E1C0
E1C0
E1C0
E1C0
FFC0
FFC0
7F80
ENDCHAR
STARTCHAR 1EE2
ENCODING 7906
SWIDTH 617 0
DWIDTH 12 0
BBX 11 17 1 -2
BITMAP
0060
7FE0
7FC0
FFC0
E1C0
E1C0
E1C0
E1C0
E1C0
E1C0
E1C0
E1C0
FFC0
FFC0
7F80
0000
1E00
ENDCHAR
STARTCHAR 1EE3
ENCODING 7907
SWIDTH 617 0
DWIDTH 12 0
BBX 11 17 1 -2
BITMAP
0060
7FE0
7FC0
FFC0
E1C0
E1C0
E1C0
E1C0
E1C0
E1C0
E1C0
E1C0
FFC0
FFC0
7F80
0000
1E00
ENDCHAR
STARTCHAR 1EE4
ENCODING 7908
SWIDTH 565 0
DWIDTH 11 0
BBX 10 16 1 -2
BITMAP
E1C0
E1C0
E1C0
E1C0
E1C0
E1C0
E1C0
E1C0
E1C0
E1C0
E1C0
FFC0
FFC0
7F80
0000
1E00
ENDCHAR
STARTCHAR 1EE5
ENCODING 7909
SWIDTH 565 0
DWIDTH 11 0
BBX 10 16 1 -2
BITMAP
E1C0
E1C0
E1C0
E1C0
E1C0
E1C0
E1C0
E1C0
E1C0
E1C0
E1C0
FFC0
FFC0
7F80
0000
1E00
ENDCHAR
STARTCHAR 1EE6
ENCODING 7910
SWIDTH 565 0
DWIDTH 11 0
BBX 10 18 1 0
BITMAP
0C00
1E00
0400
0400
E1C0
E1C0
E1C0
E1C0
E1C0
E1C0
E1C0
E1C0
E1C0
E1C0
E1C0
FFC0
FFC0
7F80
ENDCHAR
STARTCHAR 1EE7
ENCODING 7911
SWIDTH 565 0
DWIDTH 11 0
BBX 10 18 1 0
BITMAP
0C00
1E00
0400
0400
E1C0
E1C0
E1C0
E1C0
E1C0
E1C0
E1C0
E1C0
E1C0
E1C0
E1C0
FFC0
FFC0
7F80
ENDCHAR
STARTCHAR 1EE8
ENCODING 7912
SWIDTH 565 0
DWIDTH 11 0
BBX 11 16 1 0
BITMAP
3F00
3060
E1E0
E1C0
E1C0
E1C0
E1C0
E1C0
E1C0
E1C0
E1C0
E1C0
E1C0
FFC0
FFC0
7F80
ENDCHAR
STARTCHAR 1EE9
ENCODING 7913
SWIDTH 565 0
DWIDTH 11 0
BBX 11 16 1 0
BITMAP
3F00
3060
E1E0
E1C0
E1C0
E1C0
E1C0
E1C0
E1C0
E1C0
E1C0
E1C0
E1C0
FFC0
FFC0
7F80
ENDCHAR
STARTCHAR 1EEA
ENCODING 7914
SWIDTH 565 0
DWIDTH 11 0
BBX 11 16 1 0
BITMAP
7E00
0360
E1E0
E1C0
E1C0
E1C0
E1C0
E1C0
E1C0
E1C0
E1C0
E1C0
E1C0
FFC0
FFC0
7F80
ENDCHAR
STARTCHAR 1EEB
ENCODING 7915
SWIDTH 565 0
DWIDTH 11 0
BBX 11 16 1 0
BITMAP
7E00
0360
E1E0
E1C0
E1C0
E1C0
E1C0
E1C0
E1C0
E1C0
E1C0
E1C0
E1C0
FFC0
FFC0
7F80
ENDCHAR
STARTCHAR 1EEC
ENCODING 7916
SWIDTH 565 0
DWIDTH 11 0
BBX 11 18 1 0
BITMAP
0C00
1E00
0400
0460
E1E0
E1C0
E1C0
E1C0
E1C0
E1C0
E1C0
E1C0
E1C0
E1C0
E1C0
FFC0
FFC0
7F80
ENDCHAR
STARTCHAR 1EED
ENCODING 7917
SWIDTH 565 0
DWIDTH 11 0
BBX 11 18 1 0
BITMAP
0C00
1E00
0400
0460
E1E0
E1C0
E1C0
E1C0
E1C0
E1C0
E1C0
E1C0
E1C0
E1C0
E1C0
FFC0
FFC0
7F80
ENDCHAR
STARTCHAR 1EEE
ENCODING 7918
SWIDTH 565 0
DWIDTH 11 0
BBX 11 18 1 0
BITMAP
1800
7F80
4300
0060
E1E0
E1C0
E1C0
E1C0
E1C0
E1C0
E1C0
E1C0
E1C0
E1C0
E1C0
FFC0
FFC0
7F80
ENDCHAR
STARTCHAR 1EEF
ENCODING 7919
SWIDTH 565 0
DWIDTH 11 0
BBX 11 18 1 0
BITMAP
1800
7F80
4300
0060
E1E0
E1C0
E1C0
E1C0
E1C0
E1C0
E1C0
E1C0
E1C0
E1C0
E1C0
FFC0
FFC0
7F80
ENDCHAR
STARTCHAR 1EF0
ENCODING 7920
SWIDTH 565 0
DWIDTH 11 0
BBX 11 17 1 -2
BITMAP
0060
E1E0
E1C0
E1C0
E1C0
E1C0
E1C0
E1C0
E1C0
E1C0
E1C0
E1C0
FFC0
FFC0
7F80
0000
1E00
ENDCHAR
STARTCHAR 1EF1
ENCODING 7921
SWIDTH 565 0
DWIDTH 11 0
BBX 11 17 1 -2
BITMAP
0060
E1E0
E1C0
E1C0
E1C0
E1C0
E1C0
E1C0
E1C0
E1C0
E1C0
E1C0
FFC0
FFC0
7F80
0000
1E00
ENDCHAR
STARTCHAR 1EF2
ENCODING 7922
SWIDTH 462 0
DWIDTH 9 0
BBX 9 16 0 0
BITMAP
7E00
0300
E380
E380
F380
7700
7700
3E00
3E00
1E00
1C00
1C00
1C00
1C00
1C00
1C00
ENDCHAR
STARTCHAR 1EF3
ENCODING 7923
SWIDTH 462 0
DWIDTH 9 0
BBX 9 16 0 0
BITMAP
7E00
0300
E380
E380
F380
7700
7700
3E00
3E00
1E00
1C00
1C00
1C00
1C00
1C00
1C00
ENDCHAR
STARTCHAR 1EF4
ENCODING 7924
SWIDTH 462 0
DWIDTH 9 0
BBX 9 16 0 -2
BITMAP
E380
E380
F380
7700
7700
3E00
3E00
1E00
1C00
1C00
1C00
1C00
1C00
1C00
0000
1C00
ENDCHAR
STARTCHAR 1EF5
ENCODING 7925
SWIDTH 462 0
DWIDTH 9 0
BBX 9 16 0 -2
BITMAP
E380
E380
F380
7700
7700
3E00
3E00
1E00
1C00
1C00
1C00
1C00
1C00
1C00
0000
1C00
ENDCHAR
STARTCHAR 1EF6
ENCODING 7926
SWIDTH 462 0
DWIDTH 9 0
BBX 9 18 0 0
BITMAP
1C00
1C00
0C00
0800
E380
E380
F380
7700
7700
3E00
3E00
1E00
1C00
1C00
1C00
1C00
1C00
1C00
ENDCHAR
STARTCHAR 1EF7
ENCODING 7927
SWIDTH 462 0
DWIDTH 9 0
BBX 9 18 0 0
BITMAP
1C00
1C00
0C00
0800
E380
E380
F380
7700
7700
3E00
3E00
1E00
1C00
1C00
1C00
1C00
1C00
1C00
ENDCHAR
STARTCHAR 1EF8
ENCODING 7928
SWIDTH 462 0
DWIDTH 9 0
BBX 9 17 0 1
BITMAP
7D80
4700
0000
E380
E380
F380
7700
7700
3E00
3E00
1E00
1C00
1C00
1C00
1C00
1C00
1C00
ENDCHAR
STARTCHAR 1EF9
ENCODING 7929
SWIDTH 462 0
DWIDTH 9 0
BBX 9 17 0 1
BITMAP
7D80
4700
0000
E380
E380
F380
7700
7700
3E00
3E00
1E00
1C00
1C00
1C00
1C00
1C00
1C00
ENDCHAR
STARTCHAR 2013
ENCODING 8211
SWIDTH 462 0
DWIDTH 9 0
BBX 9 2 0 6
BITMAP
FF80
FF80
ENDCHAR
STARTCHAR 2014
ENCODING 8212
SWIDTH 977 0
DWIDTH 19 0
BBX 19 2 0 6
BITMAP
FFFFE0
FFFFE0
ENDCHAR
STARTCHAR 2018
ENCODING 8216
SWIDTH 205 0
DWIDTH 4 0
BBX 4 5 0 9
BITMAP
30
60
E0
C0
40
ENDCHAR
STARTCHAR 2019
ENCODING 8217
SWIDTH 205 0
DWIDTH 4 0
BBX 3 5 1 9
BITMAP
40
60
60
C0
C0
ENDCHAR
STARTCHAR 201A
ENCODING 8218
SWIDTH 154 0
DWIDTH 3 0
BBX 4 5 -1 -2
BITMAP
20
30
30
60
E0
ENDCHAR
STARTCHAR 201C
ENCODING 8220
SWIDTH 360 0
DWIDTH 7 0
BBX 7 5 0 9
BITMAP
36
6C
EC
DC
4C
ENDCHAR
STARTCHAR 201D
ENCODING 8221
SWIDTH 360 0
DWIDTH 7 0
BBX 6 5 1 9
BITMAP
48
6C
6C
D8
D8
ENDCHAR
STARTCHAR 201E
ENCODING 8222
SWIDTH 360 0
DWIDTH 7 0
BBX 7 5 0 -2
BITMAP
26
36
36
6C
EC
ENDCHAR
STARTCHAR 2020
ENCODING 8224
SWIDTH 514 0
DWIDTH 10 0
BBX 10 14 0 0
BITMAP
0C00
0C00
0C00
0C00
FFC0
FFC0
0C00
0C00
0C00
0C00
0C00
0C00
0C00
0C00
ENDCHAR
STARTCHAR 2021
ENCODING 8225
SWIDTH 514 0
DWIDTH 10 0
BBX 10 14 0 0
BITMAP
0C00
0C00
0C00
0C00
FFC0
FFC0
0C00
0C00
FFC0
FFC0
0C00
0C00
0C00
0C00
ENDCHAR
STARTCHAR 2022
ENCODING 8226
SWIDTH 205 0
DWIDTH 4 0
BBX 4 3 0 6
BITMAP
F0
F0
F0
ENDCHAR
STARTCHAR 2026
ENCODING 8230
SWIDTH 462 0
DWIDTH 9 0
BBX 9 2 0 0
BITMAP
ED80
ED80
ENDCHAR
STARTCHAR 2030
ENCODING 8240
SWIDTH 874 0
DWIDTH 17 0
BBX 15 14 1 0
BITMAP
F180
F180
9300
F300
F600
0600
0C00
0C00
1800
1BDE
3BDE
32D2
73DE
63DE
ENDCHAR
STARTCHAR 2039
ENCODING 8249
SWIDTH 257 0
DWIDTH 5 0
BBX 5 8 0 2
BITMAP
08
38
60
C0
60
30
18
08
ENDCHAR
STARTCHAR 203A
ENCODING 8250
SWIDTH 257 0
DWIDTH 5 0
BBX 5 8 0 2
BITMAP
C0
E0
30
18
38
60
C0
80
ENDCHAR
STARTCHAR 2044
ENCODING 8260
SWIDTH 308 0
DWIDTH 6 0
BBX 7 14 0 0
BITMAP
02
06
06
0C
0C
18
18
30
30
20
60
40
C0
80
ENDCHAR
STARTCHAR 20AB
ENCODING 8363
SWIDTH 462 0
DWIDTH 9 0
BBX 8 14 0 0
BITMAP
7E
7F
7F
63
63
F3
F3
63
63
7F
7F
00
7F
7F
ENDCHAR
STARTCHAR 20AC
ENCODING 8364
SWIDTH 565 0
DWIDTH 11 0
BBX 10 14 1 0
BITMAP
7F80
7F80
7FC0
71C0
7000
FC00
FC00
7000
FC00
FC00
71C0
7FC0
7FC0
7F80
ENDCHAR
STARTCHAR 2122
ENCODING 8482
SWIDTH 565 0
DWIDTH 11 0
BBX 12 7 0 7
BITMAP
7360
FB70
2370
2370
22F0
22B0
2230
ENDCHAR
STARTCHAR 215B
ENCODING 8539
SWIDTH 617 0
DWIDTH 12 0
BBX 11 14 1 0
BITMAP
6180
E300
E300
6200
6600
6400
6C00
09C0
1BE0
1360
31E0
2360
63E0
61E0
ENDCHAR
STARTCHAR 215C
ENCODING 8540
SWIDTH 668 0
DWIDTH 13 0
BBX 12 14 1 0
BITMAP
F0C0
F180
1180
7300
7300
1200
F600
04E0
0DF0
09B0
19F0
11B0
31F0
31F0
ENDCHAR
STARTCHAR 215D
ENCODING 8541
SWIDTH 668 0
DWIDTH 13 0
BBX 12 14 1 0
BITMAP
F0C0
F180
8180
F100
1300
1200
F600
04E0
0DF0
09B0
19F0
11B0
31F0
31F0
ENDCHAR
STARTCHAR 215E
ENCODING 8542
SWIDTH 617 0
DWIDTH 12 0
BBX 11 14 1 0
BITMAP
F100
F300
3200
2600
6400
6C00
4C00
19C0
1BE0
3360
33C0
6360
63E0
43C0
ENDCHAR
STARTCHAR 2190
ENCODING 8592
SWIDTH 411 0
DWIDTH 8 0
BBX 8 7 0 2
BITMAP
30
70
E0
FF
E0
70
30
ENDCHAR
STARTCHAR 2191
ENCODING 8593
SWIDTH 360 0
DWIDTH 7 0
BBX 7 8 0 2
BITMAP
38
7C
FE
DE
18
18
18
18
ENDCHAR
STARTCHAR 2192
ENCODING 8594
SWIDTH 411 0
DWIDTH 8 0
BBX 8 7 0 2
BITMAP
0C
0E
03
FF
03
0E
0C
ENDCHAR
STARTCHAR 2193
ENCODING 8595
SWIDTH 360 0
DWIDTH 7 0
BBX 7 8 0 2
BITMAP
18
18
18
18
DE
FE
7C
38
ENDCHAR
STARTCHAR 2194
ENCODING 8596
SWIDTH 514 0
DWIDTH 10 0
BBX 10 7 0 2
BITMAP
3300
7180
E0C0
FFC0
E0C0
7380
3300
ENDCHAR
STARTCHAR 2195
ENCODING 8597
SWIDTH 360 0
DWIDTH 7 0
BBX 7 10 0 2
BITMAP
38
7C
DE
DA
18
18
DE
FE
7C
38
ENDCHAR
STARTCHAR 2196
ENCODING 8598
SWIDTH 360 0
DWIDTH 7 0
BBX 7 6 0 2
BITMAP
38
78
F0
78
4E
46
ENDCHAR
STARTCHAR 2197
ENCODING 8599
SWIDTH 360 0
DWIDTH 7 0
BBX 6 6 1 2
BITMAP
38
7C
1C
74
EC
C4
ENDCHAR
STARTCHAR 2198
ENCODING 8600
SWIDTH 360 0
DWIDTH 7 0
BBX 7 7 0 2
BITMAP
40
E2
76
1E
0E
3E
1C
ENDCHAR
STARTCHAR 2199
ENCODING 8601
SWIDTH 360 0
DWIDTH 7 0
BBX 7 6 0 3
BITMAP
46
5C
78
F0
7C
38
ENDCHAR
STARTCHAR 220F
ENCODING 8719
SWIDTH 462 0
DWIDTH 9 0
BBX 9 14 0 0
BITMAP
FF80
FF80
3300
3300
3300
3300
3300
3300
3300
3300
3300
3300
3300
3300
ENDCHAR
STARTCHAR 2211
ENCODING 8721
SWIDTH 360 0
DWIDTH 7 0
BBX 8 14 0 0
BITMAP
FF
FF
E0
60
70
30
18
18
30
30
60
60
FE
FF
ENDCHAR
STARTCHAR 2212
ENCODING 8722
SWIDTH 411 0
DWIDTH 8 0
BBX 8 2 0 6
BITMAP
FF
FF
ENDCHAR
STARTCHAR 221A
ENCODING 8730
SWIDTH 514 0
DWIDTH 10 0
BBX 15 18 0 0
BITMAP
00FE
00FE
00C0
00C0
00C0
00C0
0180
0180
0180
0180
7180
F180
3180
1B00
1B00
1B00
0F00
0F00
ENDCHAR
STARTCHAR 2260
ENCODING 8800
SWIDTH 411 0
DWIDTH 8 0
BBX 8 9 0 2
BITMAP
0C
0C
FF
FF
18
FF
FF
30
30
ENDCHAR
STARTCHAR 2264
ENCODING 8804
SWIDTH 360 0
DWIDTH 7 0
BBX 7 13 0 1
BITMAP
06
1E
7C
F0
C0
E0
78
1E
0E
02
00
FE
FE
ENDCHAR
STARTCHAR 2265
ENCODING 8805
SWIDTH 360 0
DWIDTH 7 0
BBX 7 14 0 0
BITMAP
80
C0
F0
7C
1E
06
0E
3E
F8
E0
80
00
FE
FE
ENDCHAR
ENDFONT
